<?xml version="1.0" encoding="UTF-8"?>
<svg xmlns="http://www.w3.org/2000/svg" xmlns:xlink="http://www.w3.org/1999/xlink" width="466" height="818" viewBox="0 0 466 818">
<defs>
<g>
<g id="glyph-0-0">
<path d="M 10.53125 -4.28125 C 10.53125 -6.6875 8.546875 -8.421875 6.1875 -8.703125 C 8.078125 -9.09375 9.890625 -10.78125 9.890625 -13.03125 C 9.890625 -14.96875 7.9375 -16.375 5.703125 -16.375 C 3.4375 -16.375 1.46875 -15 1.46875 -13.015625 C 1.46875 -12.140625 2.109375 -12 2.421875 -12 C 2.953125 -12 3.390625 -12.3125 3.390625 -12.953125 C 3.390625 -13.609375 2.953125 -13.921875 2.421875 -13.921875 C 2.328125 -13.921875 2.203125 -13.921875 2.109375 -13.875 C 2.828125 -15.515625 4.78125 -15.8125 5.65625 -15.8125 C 6.515625 -15.8125 8.15625 -15.390625 8.15625 -13.015625 C 8.15625 -12.3125 8.046875 -11.078125 7.21875 -9.984375 C 6.46875 -9.015625 5.625 -8.96875 4.8125 -8.890625 C 4.6875 -8.890625 4.109375 -8.84375 4.015625 -8.84375 C 3.84375 -8.828125 3.734375 -8.796875 3.734375 -8.625 C 3.734375 -8.453125 3.765625 -8.421875 4.265625 -8.421875 L 5.484375 -8.421875 C 7.6875 -8.421875 8.65625 -6.515625 8.65625 -4.3125 C 8.65625 -1.34375 7.0625 -0.203125 5.625 -0.203125 C 4.3125 -0.203125 2.1875 -0.84375 1.515625 -2.75 C 1.640625 -2.703125 1.765625 -2.703125 1.890625 -2.703125 C 2.484375 -2.703125 2.921875 -3.09375 2.921875 -3.734375 C 2.921875 -4.453125 2.375 -4.78125 1.890625 -4.78125 C 1.46875 -4.78125 0.8125 -4.578125 0.8125 -3.671875 C 0.8125 -1.390625 3.046875 0.390625 5.671875 0.390625 C 8.421875 0.390625 10.53125 -1.765625 10.53125 -4.28125 Z M 10.53125 -4.28125 "/>
</g>
<g id="glyph-1-0">
<path d="M 9.515625 0 L 9.515625 -0.640625 L 8.765625 -0.640625 C 6.640625 -0.640625 6.59375 -0.921875 6.59375 -1.8125 L 6.59375 -15.828125 C 6.59375 -16.359375 6.5625 -16.375 6.21875 -16.375 C 5.25 -15.21875 3.796875 -14.84375 2.40625 -14.796875 C 2.328125 -14.796875 2.203125 -14.796875 2.1875 -14.75 C 2.15625 -14.6875 2.15625 -14.640625 2.15625 -14.125 C 2.921875 -14.125 4.21875 -14.28125 5.203125 -14.875 L 5.203125 -1.8125 C 5.203125 -0.9375 5.15625 -0.640625 3.015625 -0.640625 L 2.28125 -0.640625 L 2.28125 0 L 5.890625 -0.046875 Z M 9.515625 0 "/>
</g>
<g id="glyph-2-0">
<path d="M 10.859375 -4.21875 L 10.859375 -4.859375 L 8.328125 -4.859375 L 8.328125 -16.03125 C 8.328125 -16.546875 8.296875 -16.578125 7.859375 -16.578125 L 0.5 -4.859375 L 0.5 -4.21875 L 6.890625 -4.21875 L 6.890625 -1.78125 C 6.890625 -0.890625 6.84375 -0.640625 5.109375 -0.640625 L 4.640625 -0.640625 L 4.640625 0 C 5.421875 -0.046875 6.765625 -0.046875 7.609375 -0.046875 C 8.453125 -0.046875 9.78125 -0.046875 10.578125 0 L 10.578125 -0.640625 L 10.109375 -0.640625 C 8.375 -0.640625 8.328125 -0.890625 8.328125 -1.78125 L 8.328125 -4.21875 Z M 6.96875 -4.859375 L 0.984375 -4.859375 L 6.96875 -14.390625 Z M 6.96875 -4.859375 "/>
</g>
<g id="glyph-3-0">
<path d="M 10.328125 -5 C 10.328125 -7.984375 8.40625 -10.28125 6 -10.28125 C 4.734375 -10.28125 3.671875 -9.8125 2.828125 -8.921875 L 2.828125 -14.5 C 3.078125 -14.390625 4.09375 -14.078125 5.125 -14.078125 C 7.4375 -14.078125 8.703125 -15.3125 9.421875 -16.03125 C 9.421875 -16.234375 9.421875 -16.359375 9.265625 -16.359375 C 9.265625 -16.359375 9.1875 -16.359375 9 -16.25 C 8.125 -15.890625 7.109375 -15.59375 5.875 -15.59375 C 5.125 -15.59375 4.015625 -15.6875 2.796875 -16.234375 C 2.53125 -16.359375 2.453125 -16.359375 2.453125 -16.359375 C 2.328125 -16.359375 2.296875 -16.328125 2.296875 -15.828125 L 2.296875 -8.65625 C 2.296875 -8.203125 2.296875 -8.078125 2.546875 -8.078125 C 2.671875 -8.078125 2.71875 -8.125 2.84375 -8.296875 C 3.640625 -9.421875 4.734375 -9.890625 5.96875 -9.890625 C 6.84375 -9.890625 8.703125 -9.34375 8.703125 -5.109375 C 8.703125 -4.3125 8.703125 -2.875 7.953125 -1.734375 C 7.328125 -0.71875 6.375 -0.203125 5.296875 -0.203125 C 3.671875 -0.203125 2 -1.34375 1.5625 -3.25 C 1.65625 -3.21875 1.859375 -3.171875 1.953125 -3.171875 C 2.28125 -3.171875 2.90625 -3.34375 2.90625 -4.109375 C 2.90625 -4.78125 2.421875 -5.0625 1.953125 -5.0625 C 1.390625 -5.0625 1.015625 -4.703125 1.015625 -4.015625 C 1.015625 -1.859375 2.71875 0.390625 5.359375 0.390625 C 7.90625 0.390625 10.328125 -1.8125 10.328125 -5 Z M 10.328125 -5 "/>
</g>
<g id="glyph-4-0">
<path d="M 10.40625 -8.171875 C 10.40625 -14.96875 7.625 -16.375 5.75 -16.375 C 3.296875 -16.375 0.9375 -14.21875 0.9375 -10.90625 C 0.9375 -7.828125 2.953125 -5.546875 5.484375 -5.546875 C 7.5625 -5.546875 8.46875 -7.484375 8.71875 -8.296875 L 8.71875 -7.328125 C 8.71875 -1.890625 6.46875 -0.203125 4.609375 -0.203125 C 4.046875 -0.203125 2.65625 -0.265625 2.078125 -1.234375 C 2.71875 -1.140625 3.203125 -1.484375 3.203125 -2.109375 C 3.203125 -2.78125 2.65625 -3 2.296875 -3 C 2.078125 -3 1.40625 -2.90625 1.40625 -2.0625 C 1.40625 -0.375 2.875 0.390625 4.65625 0.390625 C 7.515625 0.390625 10.40625 -2.71875 10.40625 -8.171875 Z M 8.671875 -10.328125 C 8.671875 -8.578125 7.875 -5.953125 5.53125 -5.953125 C 4.859375 -5.953125 3.921875 -6.078125 3.140625 -7.5625 C 2.625 -8.53125 2.625 -9.671875 2.625 -10.875 C 2.625 -12.34375 2.625 -13.359375 3.328125 -14.453125 C 3.671875 -14.96875 4.3125 -15.8125 5.75 -15.8125 C 8.671875 -15.8125 8.671875 -11.328125 8.671875 -10.328125 Z M 8.671875 -10.328125 "/>
</g>
<g id="glyph-5-0">
<path d="M 10.328125 -3.84375 L 9.890625 -3.84375 C 9.640625 -2.078125 9.4375 -1.78125 9.34375 -1.640625 C 9.21875 -1.4375 7.4375 -1.4375 7.09375 -1.4375 L 2.328125 -1.4375 L 7.0625 -6.1875 C 8.578125 -7.625 10.328125 -9.3125 10.328125 -11.765625 C 10.328125 -14.6875 8 -16.375 5.40625 -16.375 C 2.671875 -16.375 1.015625 -13.984375 1.015625 -11.75 C 1.015625 -10.78125 1.734375 -10.65625 2.03125 -10.65625 C 2.28125 -10.65625 3.015625 -10.796875 3.015625 -11.671875 C 3.015625 -12.4375 2.375 -12.65625 2.03125 -12.65625 C 1.890625 -12.65625 1.734375 -12.640625 1.640625 -12.59375 C 2.109375 -14.6875 3.546875 -15.734375 5.0625 -15.734375 C 7.21875 -15.734375 8.625 -14.03125 8.625 -11.765625 C 8.625 -9.609375 7.359375 -7.75 5.953125 -6.140625 L 1.015625 -0.5625 L 1.015625 0 L 9.734375 0 Z M 10.328125 -3.84375 "/>
</g>
<g id="glyph-6-0">
<path d="M 10.40625 -5.078125 C 10.40625 -8.171875 8.40625 -10.4375 5.875 -10.4375 C 4.359375 -10.4375 3.25 -9.4375 2.625 -7.703125 L 2.625 -8.546875 C 2.625 -14.46875 5.40625 -15.8125 7.015625 -15.8125 C 7.53125 -15.8125 8.796875 -15.71875 9.296875 -14.75 C 8.890625 -14.75 8.15625 -14.75 8.15625 -13.875 C 8.15625 -13.203125 8.703125 -12.984375 9.046875 -12.984375 C 9.265625 -12.984375 9.9375 -13.078125 9.9375 -13.921875 C 9.9375 -15.484375 8.703125 -16.375 6.984375 -16.375 C 4.046875 -16.375 0.9375 -13.3125 0.9375 -7.828125 C 0.9375 -1.09375 3.734375 0.390625 5.71875 0.390625 C 8.125 0.390625 10.40625 -1.765625 10.40625 -5.078125 Z M 8.71875 -5.109375 C 8.71875 -3.765625 8.71875 -2.78125 8.203125 -1.78125 C 7.65625 -0.765625 6.859375 -0.203125 5.71875 -0.203125 C 2.671875 -0.203125 2.671875 -4.765625 2.671875 -5.671875 C 2.671875 -7.453125 3.515625 -10.03125 5.828125 -10.03125 C 6.25 -10.03125 7.453125 -10.03125 8.28125 -8.328125 C 8.71875 -7.359375 8.71875 -6.34375 8.71875 -5.109375 Z M 8.71875 -5.109375 "/>
</g>
<g id="glyph-7-0">
<path d="M 10.40625 -7.953125 C 10.40625 -9.46875 10.390625 -12.046875 9.34375 -14.03125 C 8.421875 -15.765625 6.96875 -16.375 5.671875 -16.375 C 4.484375 -16.375 2.96875 -15.828125 2.03125 -14.046875 C 1.046875 -12.1875 0.9375 -9.890625 0.9375 -7.953125 C 0.9375 -6.546875 0.96875 -4.390625 1.734375 -2.5 C 2.796875 0.046875 4.703125 0.390625 5.671875 0.390625 C 6.8125 0.390625 8.546875 -0.078125 9.5625 -2.421875 C 10.3125 -4.140625 10.40625 -6.140625 10.40625 -7.953125 Z M 8.828125 -8.234375 C 8.828125 -6.609375 8.828125 -4.640625 8.53125 -3.171875 C 8 -0.46875 6.546875 0 5.671875 0 C 4.09375 0 3.140625 -1.359375 2.796875 -3.25 C 2.53125 -4.703125 2.53125 -6.84375 2.53125 -8.234375 C 2.53125 -10.140625 2.53125 -11.71875 2.84375 -13.234375 C 3.328125 -15.34375 4.703125 -15.984375 5.671875 -15.984375 C 6.6875 -15.984375 8 -15.3125 8.46875 -13.28125 C 8.796875 -11.875 8.828125 -10.203125 8.828125 -8.234375 Z M 8.828125 -8.234375 "/>
</g>
<g id="glyph-8-0">
<path d="M 12.515625 -5.328125 L 11.46875 -5.328125 C 11.40625 -4.8125 11.21875 -3.34375 10.859375 -3.09375 C 10.65625 -2.921875 8.71875 -2.921875 8.34375 -2.921875 L 4.515625 -2.921875 L 8.078125 -5.875 C 10.828125 -7.9375 12.515625 -9.1875 12.515625 -11.578125 C 12.515625 -14.5 9.859375 -16.25 6.59375 -16.25 C 3.796875 -16.25 1.390625 -14.671875 1.390625 -12.3125 C 1.390625 -11 2.453125 -10.625 3.015625 -10.625 C 3.796875 -10.625 4.6875 -11.15625 4.6875 -12.296875 C 4.6875 -13.328125 3.921875 -13.859375 3.140625 -13.953125 C 4.140625 -15.09375 5.453125 -15.1875 5.96875 -15.1875 C 8.25 -15.1875 9.34375 -13.328125 9.34375 -11.546875 C 9.34375 -9.609375 8.03125 -7.828125 7.015625 -6.765625 L 1.640625 -1.140625 C 1.390625 -0.921875 1.390625 -0.875 1.390625 -0.421875 L 1.390625 0 L 11.796875 0 Z M 12.515625 -5.328125 "/>
</g>
<g id="glyph-9-0">
<path d="M 11.96875 0 L 11.96875 -1.0625 L 8.578125 -1.0625 L 8.578125 -15.53125 C 8.578125 -16.25 8.53125 -16.25 7.734375 -16.25 C 5.890625 -14.671875 3.140625 -14.671875 2.609375 -14.671875 L 2.125 -14.671875 L 2.125 -13.609375 L 2.609375 -13.609375 C 3.46875 -13.609375 4.78125 -13.75 5.78125 -14.078125 L 5.78125 -1.0625 L 2.328125 -1.0625 L 2.328125 0 L 7.140625 -0.046875 Z M 11.96875 0 "/>
</g>
</g>
<clipPath id="clip-0">
<path clip-rule="nonzero" d="M 12 8.609375 L 22 8.609375 L 22 25.390625 L 12 25.390625 Z M 12 8.609375 "/>
</clipPath>
<clipPath id="clip-1">
<path clip-rule="nonzero" d="M 61 8.808594 L 69 8.808594 L 69 25.191406 L 61 25.191406 Z M 61 8.808594 "/>
</clipPath>
<clipPath id="clip-2">
<path clip-rule="nonzero" d="M 107.3125 8.710938 L 118.691406 8.710938 L 118.691406 25.292969 L 107.3125 25.292969 Z M 107.3125 8.710938 "/>
</clipPath>
<clipPath id="clip-3">
<path clip-rule="nonzero" d="M 157 8.808594 L 165 8.808594 L 165 25.191406 L 157 25.191406 Z M 157 8.808594 "/>
</clipPath>
<clipPath id="clip-4">
<path clip-rule="nonzero" d="M 204 8.621094 L 214 8.621094 L 214 25.378906 L 204 25.378906 Z M 204 8.621094 "/>
</clipPath>
<clipPath id="clip-5">
<path clip-rule="nonzero" d="M 252 8.609375 L 262 8.609375 L 262 25.390625 L 252 25.390625 Z M 252 8.609375 "/>
</clipPath>
<clipPath id="clip-6">
<path clip-rule="nonzero" d="M 300 8.808594 L 310 8.808594 L 310 25.191406 L 300 25.191406 Z M 300 8.808594 "/>
</clipPath>
<clipPath id="clip-7">
<path clip-rule="nonzero" d="M 348 8.609375 L 358 8.609375 L 358 25.390625 L 348 25.390625 Z M 348 8.609375 "/>
</clipPath>
<clipPath id="clip-8">
<path clip-rule="nonzero" d="M 396 8.621094 L 406 8.621094 L 406 25.378906 L 396 25.378906 Z M 396 8.621094 "/>
</clipPath>
<clipPath id="clip-9">
<path clip-rule="nonzero" d="M 444 8.609375 L 454 8.609375 L 454 25.390625 L 444 25.390625 Z M 444 8.609375 "/>
</clipPath>
<clipPath id="clip-10">
<path clip-rule="nonzero" d="M 12 216.609375 L 22 216.609375 L 22 233.390625 L 12 233.390625 Z M 12 216.609375 "/>
</clipPath>
<clipPath id="clip-11">
<path clip-rule="nonzero" d="M 60 216.609375 L 70 216.609375 L 70 233.390625 L 60 233.390625 Z M 60 216.609375 "/>
</clipPath>
<clipPath id="clip-12">
<path clip-rule="nonzero" d="M 108 176.609375 L 118 176.609375 L 118 193.390625 L 108 193.390625 Z M 108 176.609375 "/>
</clipPath>
<clipPath id="clip-13">
<path clip-rule="nonzero" d="M 156 176.609375 L 166 176.609375 L 166 193.390625 L 156 193.390625 Z M 156 176.609375 "/>
</clipPath>
<clipPath id="clip-14">
<path clip-rule="nonzero" d="M 204 176.609375 L 214 176.609375 L 214 193.390625 L 204 193.390625 Z M 204 176.609375 "/>
</clipPath>
<clipPath id="clip-15">
<path clip-rule="nonzero" d="M 252 216.609375 L 262 216.609375 L 262 233.390625 L 252 233.390625 Z M 252 216.609375 "/>
</clipPath>
<clipPath id="clip-16">
<path clip-rule="nonzero" d="M 300 216.609375 L 310 216.609375 L 310 233.390625 L 300 233.390625 Z M 300 216.609375 "/>
</clipPath>
<clipPath id="clip-17">
<path clip-rule="nonzero" d="M 348 176.609375 L 358 176.609375 L 358 193.390625 L 348 193.390625 Z M 348 176.609375 "/>
</clipPath>
<clipPath id="clip-18">
<path clip-rule="nonzero" d="M 396 176.609375 L 406 176.609375 L 406 193.390625 L 396 193.390625 Z M 396 176.609375 "/>
</clipPath>
<clipPath id="clip-19">
<path clip-rule="nonzero" d="M 444 176.609375 L 454 176.609375 L 454 193.390625 L 444 193.390625 Z M 444 176.609375 "/>
</clipPath>
<clipPath id="clip-20">
<path clip-rule="nonzero" d="M 36 176.609375 L 46 176.609375 L 46 193.390625 L 36 193.390625 Z M 36 176.609375 "/>
</clipPath>
<clipPath id="clip-21">
<path clip-rule="nonzero" d="M 60 136.609375 L 70 136.609375 L 70 153.390625 L 60 153.390625 Z M 60 136.609375 "/>
</clipPath>
<clipPath id="clip-22">
<path clip-rule="nonzero" d="M 180 136.609375 L 190 136.609375 L 190 153.390625 L 180 153.390625 Z M 180 136.609375 "/>
</clipPath>
<clipPath id="clip-23">
<path clip-rule="nonzero" d="M 276 176.609375 L 286 176.609375 L 286 193.390625 L 276 193.390625 Z M 276 176.609375 "/>
</clipPath>
<clipPath id="clip-24">
<path clip-rule="nonzero" d="M 300 136.609375 L 310 136.609375 L 310 153.390625 L 300 153.390625 Z M 300 136.609375 "/>
</clipPath>
<clipPath id="clip-25">
<path clip-rule="nonzero" d="M 420 136.609375 L 430 136.609375 L 430 153.390625 L 420 153.390625 Z M 420 136.609375 "/>
</clipPath>
<clipPath id="clip-26">
<path clip-rule="nonzero" d="M 108 96.609375 L 118 96.609375 L 118 113.390625 L 108 113.390625 Z M 108 96.609375 "/>
</clipPath>
<clipPath id="clip-27">
<path clip-rule="nonzero" d="M 348 96.609375 L 358 96.609375 L 358 113.390625 L 348 113.390625 Z M 348 96.609375 "/>
</clipPath>
<clipPath id="clip-28">
<path clip-rule="nonzero" d="M 228 56.609375 L 238 56.609375 L 238 73.390625 L 228 73.390625 Z M 228 56.609375 "/>
</clipPath>
<clipPath id="clip-29">
<path clip-rule="nonzero" d="M 12 296.9375 L 22.945312 296.9375 L 22.945312 313.71875 L 12 313.71875 Z M 12 296.9375 "/>
</clipPath>
<clipPath id="clip-30">
<path clip-rule="nonzero" d="M 61 297.136719 L 70 297.136719 L 70 313.519531 L 61 313.519531 Z M 61 297.136719 "/>
</clipPath>
<clipPath id="clip-31">
<path clip-rule="nonzero" d="M 108 297.039062 L 118.949219 297.039062 L 118.949219 313.621094 L 108 313.621094 Z M 108 297.039062 "/>
</clipPath>
<clipPath id="clip-32">
<path clip-rule="nonzero" d="M 157 297.136719 L 166 297.136719 L 166 313.519531 L 157 313.519531 Z M 157 297.136719 "/>
</clipPath>
<clipPath id="clip-33">
<path clip-rule="nonzero" d="M 204 296.949219 L 214 296.949219 L 214 313.707031 L 204 313.707031 Z M 204 296.949219 "/>
</clipPath>
<clipPath id="clip-34">
<path clip-rule="nonzero" d="M 252 296.9375 L 262 296.9375 L 262 313.71875 L 252 313.71875 Z M 252 296.9375 "/>
</clipPath>
<clipPath id="clip-35">
<path clip-rule="nonzero" d="M 300 297.136719 L 310 297.136719 L 310 313.519531 L 300 313.519531 Z M 300 297.136719 "/>
</clipPath>
<clipPath id="clip-36">
<path clip-rule="nonzero" d="M 348 296.9375 L 358 296.9375 L 358 313.71875 L 348 313.71875 Z M 348 296.9375 "/>
</clipPath>
<clipPath id="clip-37">
<path clip-rule="nonzero" d="M 396 296.949219 L 406 296.949219 L 406 313.707031 L 396 313.707031 Z M 396 296.949219 "/>
</clipPath>
<clipPath id="clip-38">
<path clip-rule="nonzero" d="M 444 296.9375 L 454.945312 296.9375 L 454.945312 313.71875 L 444 313.71875 Z M 444 296.9375 "/>
</clipPath>
<clipPath id="clip-39">
<path clip-rule="nonzero" d="M 12 504.9375 L 22 504.9375 L 22 521.71875 L 12 521.71875 Z M 12 504.9375 "/>
</clipPath>
<clipPath id="clip-40">
<path clip-rule="nonzero" d="M 60 504.9375 L 70 504.9375 L 70 521.71875 L 60 521.71875 Z M 60 504.9375 "/>
</clipPath>
<clipPath id="clip-41">
<path clip-rule="nonzero" d="M 108 464.9375 L 118 464.9375 L 118 481.71875 L 108 481.71875 Z M 108 464.9375 "/>
</clipPath>
<clipPath id="clip-42">
<path clip-rule="nonzero" d="M 156 464.9375 L 166 464.9375 L 166 481.71875 L 156 481.71875 Z M 156 464.9375 "/>
</clipPath>
<clipPath id="clip-43">
<path clip-rule="nonzero" d="M 204 464.9375 L 214 464.9375 L 214 481.71875 L 204 481.71875 Z M 204 464.9375 "/>
</clipPath>
<clipPath id="clip-44">
<path clip-rule="nonzero" d="M 252 504.9375 L 262 504.9375 L 262 521.71875 L 252 521.71875 Z M 252 504.9375 "/>
</clipPath>
<clipPath id="clip-45">
<path clip-rule="nonzero" d="M 300 504.9375 L 310 504.9375 L 310 521.71875 L 300 521.71875 Z M 300 504.9375 "/>
</clipPath>
<clipPath id="clip-46">
<path clip-rule="nonzero" d="M 348 464.9375 L 358 464.9375 L 358 481.71875 L 348 481.71875 Z M 348 464.9375 "/>
</clipPath>
<clipPath id="clip-47">
<path clip-rule="nonzero" d="M 396 464.9375 L 406 464.9375 L 406 481.71875 L 396 481.71875 Z M 396 464.9375 "/>
</clipPath>
<clipPath id="clip-48">
<path clip-rule="nonzero" d="M 444 464.9375 L 454 464.9375 L 454 481.71875 L 444 481.71875 Z M 444 464.9375 "/>
</clipPath>
<clipPath id="clip-49">
<path clip-rule="nonzero" d="M 36 464.9375 L 46 464.9375 L 46 481.71875 L 36 481.71875 Z M 36 464.9375 "/>
</clipPath>
<clipPath id="clip-50">
<path clip-rule="nonzero" d="M 60 424.9375 L 70 424.9375 L 70 441.71875 L 60 441.71875 Z M 60 424.9375 "/>
</clipPath>
<clipPath id="clip-51">
<path clip-rule="nonzero" d="M 180 424.9375 L 190 424.9375 L 190 441.71875 L 180 441.71875 Z M 180 424.9375 "/>
</clipPath>
<clipPath id="clip-52">
<path clip-rule="nonzero" d="M 275 465.199219 L 287 465.199219 L 287 481.460938 L 275 481.460938 Z M 275 465.199219 "/>
</clipPath>
<clipPath id="clip-53">
<path clip-rule="nonzero" d="M 300 424.9375 L 310 424.9375 L 310 441.71875 L 300 441.71875 Z M 300 424.9375 "/>
</clipPath>
<clipPath id="clip-54">
<path clip-rule="nonzero" d="M 420 424.9375 L 430 424.9375 L 430 441.71875 L 420 441.71875 Z M 420 424.9375 "/>
</clipPath>
<clipPath id="clip-55">
<path clip-rule="nonzero" d="M 107 385.199219 L 119 385.199219 L 119 401.460938 L 107 401.460938 Z M 107 385.199219 "/>
</clipPath>
<clipPath id="clip-56">
<path clip-rule="nonzero" d="M 348 384.9375 L 358 384.9375 L 358 401.71875 L 348 401.71875 Z M 348 384.9375 "/>
</clipPath>
<clipPath id="clip-57">
<path clip-rule="nonzero" d="M 228 344.9375 L 238 344.9375 L 238 361.71875 L 228 361.71875 Z M 228 344.9375 "/>
</clipPath>
<clipPath id="clip-58">
<path clip-rule="nonzero" d="M 12 584.9375 L 22.945312 584.9375 L 22.945312 601.71875 L 12 601.71875 Z M 12 584.9375 "/>
</clipPath>
<clipPath id="clip-59">
<path clip-rule="nonzero" d="M 61 585.136719 L 70 585.136719 L 70 601.519531 L 61 601.519531 Z M 61 585.136719 "/>
</clipPath>
<clipPath id="clip-60">
<path clip-rule="nonzero" d="M 108 585.039062 L 118.949219 585.039062 L 118.949219 601.621094 L 108 601.621094 Z M 108 585.039062 "/>
</clipPath>
<clipPath id="clip-61">
<path clip-rule="nonzero" d="M 157 585.136719 L 166 585.136719 L 166 601.519531 L 157 601.519531 Z M 157 585.136719 "/>
</clipPath>
<clipPath id="clip-62">
<path clip-rule="nonzero" d="M 204 584.949219 L 214 584.949219 L 214 601.707031 L 204 601.707031 Z M 204 584.949219 "/>
</clipPath>
<clipPath id="clip-63">
<path clip-rule="nonzero" d="M 252 584.9375 L 262 584.9375 L 262 601.71875 L 252 601.71875 Z M 252 584.9375 "/>
</clipPath>
<clipPath id="clip-64">
<path clip-rule="nonzero" d="M 300 585.136719 L 310 585.136719 L 310 601.519531 L 300 601.519531 Z M 300 585.136719 "/>
</clipPath>
<clipPath id="clip-65">
<path clip-rule="nonzero" d="M 348 584.9375 L 358 584.9375 L 358 601.71875 L 348 601.71875 Z M 348 584.9375 "/>
</clipPath>
<clipPath id="clip-66">
<path clip-rule="nonzero" d="M 396 584.949219 L 406 584.949219 L 406 601.707031 L 396 601.707031 Z M 396 584.949219 "/>
</clipPath>
<clipPath id="clip-67">
<path clip-rule="nonzero" d="M 444 584.9375 L 454.945312 584.9375 L 454.945312 601.71875 L 444 601.71875 Z M 444 584.9375 "/>
</clipPath>
<clipPath id="clip-68">
<path clip-rule="nonzero" d="M 12 792.9375 L 22 792.9375 L 22 809.71875 L 12 809.71875 Z M 12 792.9375 "/>
</clipPath>
<clipPath id="clip-69">
<path clip-rule="nonzero" d="M 60 792.9375 L 70 792.9375 L 70 809.71875 L 60 809.71875 Z M 60 792.9375 "/>
</clipPath>
<clipPath id="clip-70">
<path clip-rule="nonzero" d="M 108 752.9375 L 118 752.9375 L 118 769.71875 L 108 769.71875 Z M 108 752.9375 "/>
</clipPath>
<clipPath id="clip-71">
<path clip-rule="nonzero" d="M 156 752.9375 L 166 752.9375 L 166 769.71875 L 156 769.71875 Z M 156 752.9375 "/>
</clipPath>
<clipPath id="clip-72">
<path clip-rule="nonzero" d="M 204 752.9375 L 214 752.9375 L 214 769.71875 L 204 769.71875 Z M 204 752.9375 "/>
</clipPath>
<clipPath id="clip-73">
<path clip-rule="nonzero" d="M 252 792.9375 L 262 792.9375 L 262 809.71875 L 252 809.71875 Z M 252 792.9375 "/>
</clipPath>
<clipPath id="clip-74">
<path clip-rule="nonzero" d="M 300 792.9375 L 310 792.9375 L 310 809.71875 L 300 809.71875 Z M 300 792.9375 "/>
</clipPath>
<clipPath id="clip-75">
<path clip-rule="nonzero" d="M 348 752.9375 L 358 752.9375 L 358 769.71875 L 348 769.71875 Z M 348 752.9375 "/>
</clipPath>
<clipPath id="clip-76">
<path clip-rule="nonzero" d="M 396 753.199219 L 407 753.199219 L 407 769.460938 L 396 769.460938 Z M 396 753.199219 "/>
</clipPath>
<clipPath id="clip-77">
<path clip-rule="nonzero" d="M 444 752.9375 L 454 752.9375 L 454 769.71875 L 444 769.71875 Z M 444 752.9375 "/>
</clipPath>
<clipPath id="clip-78">
<path clip-rule="nonzero" d="M 36 752.9375 L 46 752.9375 L 46 769.71875 L 36 769.71875 Z M 36 752.9375 "/>
</clipPath>
<clipPath id="clip-79">
<path clip-rule="nonzero" d="M 60 712.9375 L 70 712.9375 L 70 729.71875 L 60 729.71875 Z M 60 712.9375 "/>
</clipPath>
<clipPath id="clip-80">
<path clip-rule="nonzero" d="M 180 713.199219 L 191 713.199219 L 191 729.460938 L 180 729.460938 Z M 180 713.199219 "/>
</clipPath>
<clipPath id="clip-81">
<path clip-rule="nonzero" d="M 300 713.199219 L 311 713.199219 L 311 729.460938 L 300 729.460938 Z M 300 713.199219 "/>
</clipPath>
<clipPath id="clip-82">
<path clip-rule="nonzero" d="M 420 712.9375 L 430 712.9375 L 430 729.71875 L 420 729.71875 Z M 420 712.9375 "/>
</clipPath>
<clipPath id="clip-83">
<path clip-rule="nonzero" d="M 108 673.136719 L 118 673.136719 L 118 689.519531 L 108 689.519531 Z M 108 673.136719 "/>
</clipPath>
<clipPath id="clip-84">
<path clip-rule="nonzero" d="M 348 672.9375 L 358 672.9375 L 358 689.71875 L 348 689.71875 Z M 348 672.9375 "/>
</clipPath>
<clipPath id="clip-85">
<path clip-rule="nonzero" d="M 228 632.9375 L 238 632.9375 L 238 649.71875 L 228 649.71875 Z M 228 632.9375 "/>
</clipPath>
<clipPath id="clip-86">
<path clip-rule="nonzero" d="M 276 753.136719 L 286 753.136719 L 286 769.519531 L 276 769.519531 Z M 276 753.136719 "/>
</clipPath>
</defs>
<path fill-rule="evenodd" fill="rgb(100%, 75.3%, 79.6%)" fill-opacity="1" d="M 145 705 L 145 737 L 417 737 L 417 705 Z M 145 705 "/>
<path fill-rule="evenodd" fill="rgb(100%, 75.3%, 79.6%)" fill-opacity="1" d="M 145 665 L 145 697 L 417 697 L 417 665 Z M 145 665 "/>
<path fill-rule="evenodd" fill="rgb(100%, 75.3%, 79.6%)" fill-opacity="1" d="M 145 625 L 145 657 L 417 657 L 417 625 Z M 145 625 "/>
<path fill-rule="evenodd" fill="rgb(100%, 75.3%, 79.6%)" fill-opacity="1" d="M 145 577 L 145 609 L 417 609 L 417 577 Z M 145 577 "/>
<path fill-rule="evenodd" fill="rgb(100%, 75.3%, 79.6%)" fill-opacity="1" d="M 241 417 L 241 449 L 321 449 L 321 417 Z M 241 417 "/>
<path fill-rule="evenodd" fill="rgb(100%, 75.3%, 79.6%)" fill-opacity="1" d="M 1 377 L 1 409 L 321 409 L 321 377 Z M 1 377 "/>
<path fill-rule="evenodd" fill="rgb(100%, 75.3%, 79.6%)" fill-opacity="1" d="M 1 337 L 1 369 L 321 369 L 321 337 Z M 1 337 "/>
<path fill-rule="evenodd" fill="rgb(100%, 75.3%, 79.6%)" fill-opacity="1" d="M 1 289 L 1 321 L 321 321 L 321 289 Z M 1 289 "/>
<path fill="none" stroke-width="0.4" stroke-linecap="butt" stroke-linejoin="round" stroke="rgb(0%, 0%, 0%)" stroke-opacity="1" stroke-miterlimit="10" d="M 304 624 L 304 592 L 336 592 L 336 624 Z M 304 624 " transform="matrix(1, 0, 0, -1, -63, 833)"/>
<path fill="none" stroke-width="0.4" stroke-linecap="butt" stroke-linejoin="round" stroke="rgb(0%, 0%, 0%)" stroke-opacity="1" stroke-miterlimit="10" d="M 256 664 L 256 632 L 288 632 L 288 664 Z M 256 664 " transform="matrix(1, 0, 0, -1, -63, 833)"/>
<path fill="none" stroke-width="0.4" stroke-linecap="butt" stroke-linejoin="round" stroke="rgb(0%, 0%, 0%)" stroke-opacity="1" stroke-miterlimit="10" d="M 64 744 L 64 712 L 288 712 L 288 744 Z M 64 744 " transform="matrix(1, 0, 0, -1, -63, 833)"/>
<path fill="none" stroke-width="0.4" stroke-linecap="butt" stroke-linejoin="round" stroke="rgb(0%, 0%, 0%)" stroke-opacity="1" stroke-miterlimit="10" d="M 144 816 C 144 824.835938 136.835938 832 128 832 C 119.164062 832 112 824.835938 112 816 C 112 807.164062 119.164062 800 128 800 C 136.835938 800 144 807.164062 144 816 Z M 144 816 " transform="matrix(1, 0, 0, -1, -63, 833)"/>
<path fill="none" stroke-width="0.4" stroke-linecap="butt" stroke-linejoin="round" stroke="rgb(0%, 0%, 0%)" stroke-opacity="1" stroke-miterlimit="10" d="M 192 816 C 192 824.835938 184.835938 832 176 832 C 167.164062 832 160 824.835938 160 816 C 160 807.164062 167.164062 800 176 800 C 184.835938 800 192 807.164062 192 816 Z M 192 816 " transform="matrix(1, 0, 0, -1, -63, 833)"/>
<path fill="none" stroke-width="0.4" stroke-linecap="butt" stroke-linejoin="round" stroke="rgb(0%, 0%, 0%)" stroke-opacity="1" stroke-miterlimit="10" d="M 240 816 C 240 824.835938 232.835938 832 224 832 C 215.164062 832 208 824.835938 208 816 C 208 807.164062 215.164062 800 224 800 C 232.835938 800 240 807.164062 240 816 Z M 240 816 " transform="matrix(1, 0, 0, -1, -63, 833)"/>
<path fill="none" stroke-width="0.4" stroke-linecap="butt" stroke-linejoin="round" stroke="rgb(0%, 0%, 0%)" stroke-opacity="1" stroke-miterlimit="10" d="M 288 816 C 288 824.835938 280.835938 832 272 832 C 263.164062 832 256 824.835938 256 816 C 256 807.164062 263.164062 800 272 800 C 280.835938 800 288 807.164062 288 816 Z M 288 816 " transform="matrix(1, 0, 0, -1, -63, 833)"/>
<path fill="none" stroke-width="0.4" stroke-linecap="butt" stroke-linejoin="round" stroke="rgb(0%, 0%, 0%)" stroke-opacity="1" stroke-miterlimit="10" d="M 336 816 C 336 824.835938 328.835938 832 320 832 C 311.164062 832 304 824.835938 304 816 C 304 807.164062 311.164062 800 320 800 C 328.835938 800 336 807.164062 336 816 Z M 336 816 " transform="matrix(1, 0, 0, -1, -63, 833)"/>
<path fill="none" stroke-width="0.4" stroke-linecap="butt" stroke-linejoin="round" stroke="rgb(0%, 0%, 0%)" stroke-opacity="1" stroke-miterlimit="10" d="M 384 816 C 384 824.835938 376.835938 832 368 832 C 359.164062 832 352 824.835938 352 816 C 352 807.164062 359.164062 800 368 800 C 376.835938 800 384 807.164062 384 816 Z M 384 816 " transform="matrix(1, 0, 0, -1, -63, 833)"/>
<path fill="none" stroke-width="0.4" stroke-linecap="butt" stroke-linejoin="round" stroke="rgb(0%, 0%, 0%)" stroke-opacity="1" stroke-miterlimit="10" d="M 432 816 C 432 824.835938 424.835938 832 416 832 C 407.164062 832 400 824.835938 400 816 C 400 807.164062 407.164062 800 416 800 C 424.835938 800 432 807.164062 432 816 Z M 432 816 " transform="matrix(1, 0, 0, -1, -63, 833)"/>
<path fill="none" stroke-width="0.4" stroke-linecap="butt" stroke-linejoin="round" stroke="rgb(0%, 0%, 0%)" stroke-opacity="1" stroke-miterlimit="10" d="M 480 816 C 480 824.835938 472.835938 832 464 832 C 455.164062 832 448 824.835938 448 816 C 448 807.164062 455.164062 800 464 800 C 472.835938 800 480 807.164062 480 816 Z M 480 816 " transform="matrix(1, 0, 0, -1, -63, 833)"/>
<path fill="none" stroke-width="0.4" stroke-linecap="butt" stroke-linejoin="round" stroke="rgb(0%, 0%, 0%)" stroke-opacity="1" stroke-miterlimit="10" d="M 528 816 C 528 824.835938 520.835938 832 512 832 C 503.164062 832 496 824.835938 496 816 C 496 807.164062 503.164062 800 512 800 C 520.835938 800 528 807.164062 528 816 Z M 528 816 " transform="matrix(1, 0, 0, -1, -63, 833)"/>
<path fill="none" stroke-width="0.4" stroke-linecap="butt" stroke-linejoin="round" stroke="rgb(0%, 0%, 0%)" stroke-opacity="1" stroke-miterlimit="10" d="M 64 784 L 64 752 L 528 752 L 528 784 Z M 64 784 " transform="matrix(1, 0, 0, -1, -63, 833)"/>
<path fill="none" stroke-width="0.4" stroke-linecap="butt" stroke-linejoin="round" stroke="rgb(0%, 0%, 0%)" stroke-opacity="1" stroke-miterlimit="10" d="M 304 744 L 304 712 L 528 712 L 528 744 Z M 304 744 " transform="matrix(1, 0, 0, -1, -63, 833)"/>
<path fill="none" stroke-width="0.4" stroke-linecap="butt" stroke-linejoin="round" stroke="rgb(0%, 0%, 0%)" stroke-opacity="1" stroke-miterlimit="10" d="M 64 704 L 64 672 L 192 672 L 192 704 Z M 64 704 " transform="matrix(1, 0, 0, -1, -63, 833)"/>
<path fill="none" stroke-width="0.4" stroke-linecap="butt" stroke-linejoin="round" stroke="rgb(0%, 0%, 0%)" stroke-opacity="1" stroke-miterlimit="10" d="M 208 704 L 208 672 L 288 672 L 288 704 Z M 208 704 " transform="matrix(1, 0, 0, -1, -63, 833)"/>
<path fill="none" stroke-width="0.4" stroke-linecap="butt" stroke-linejoin="round" stroke="rgb(0%, 0%, 0%)" stroke-opacity="1" stroke-miterlimit="10" d="M 304 704 L 304 672 L 432 672 L 432 704 Z M 304 704 " transform="matrix(1, 0, 0, -1, -63, 833)"/>
<path fill="none" stroke-width="0.4" stroke-linecap="butt" stroke-linejoin="round" stroke="rgb(0%, 0%, 0%)" stroke-opacity="1" stroke-miterlimit="10" d="M 448 704 L 448 672 L 528 672 L 528 704 Z M 448 704 " transform="matrix(1, 0, 0, -1, -63, 833)"/>
<path fill="none" stroke-width="0.4" stroke-linecap="butt" stroke-linejoin="round" stroke="rgb(0%, 0%, 0%)" stroke-opacity="1" stroke-miterlimit="10" d="M 64 664 L 64 632 L 144 632 L 144 664 Z M 64 664 " transform="matrix(1, 0, 0, -1, -63, 833)"/>
<path fill="none" stroke-width="0.4" stroke-linecap="butt" stroke-linejoin="round" stroke="rgb(0%, 0%, 0%)" stroke-opacity="1" stroke-miterlimit="10" d="M 160 664 L 160 632 L 192 632 L 192 664 Z M 160 664 " transform="matrix(1, 0, 0, -1, -63, 833)"/>
<path fill="none" stroke-width="0.4" stroke-linecap="butt" stroke-linejoin="round" stroke="rgb(0%, 0%, 0%)" stroke-opacity="1" stroke-miterlimit="10" d="M 208 664 L 208 632 L 240 632 L 240 664 Z M 208 664 " transform="matrix(1, 0, 0, -1, -63, 833)"/>
<path fill="none" stroke-width="0.4" stroke-linecap="butt" stroke-linejoin="round" stroke="rgb(0%, 0%, 0%)" stroke-opacity="1" stroke-miterlimit="10" d="M 304 664 L 304 632 L 384 632 L 384 664 Z M 304 664 " transform="matrix(1, 0, 0, -1, -63, 833)"/>
<path fill="none" stroke-width="0.4" stroke-linecap="butt" stroke-linejoin="round" stroke="rgb(0%, 0%, 0%)" stroke-opacity="1" stroke-miterlimit="10" d="M 400 664 L 400 632 L 432 632 L 432 664 Z M 400 664 " transform="matrix(1, 0, 0, -1, -63, 833)"/>
<path fill="none" stroke-width="0.4" stroke-linecap="butt" stroke-linejoin="round" stroke="rgb(0%, 0%, 0%)" stroke-opacity="1" stroke-miterlimit="10" d="M 448 664 L 448 632 L 480 632 L 480 664 Z M 448 664 " transform="matrix(1, 0, 0, -1, -63, 833)"/>
<path fill="none" stroke-width="0.4" stroke-linecap="butt" stroke-linejoin="round" stroke="rgb(0%, 0%, 0%)" stroke-opacity="1" stroke-miterlimit="10" d="M 496 664 L 496 632 L 528 632 L 528 664 Z M 496 664 " transform="matrix(1, 0, 0, -1, -63, 833)"/>
<path fill="none" stroke-width="0.4" stroke-linecap="butt" stroke-linejoin="round" stroke="rgb(0%, 0%, 0%)" stroke-opacity="1" stroke-miterlimit="10" d="M 64 624 L 64 592 L 96 592 L 96 624 Z M 64 624 " transform="matrix(1, 0, 0, -1, -63, 833)"/>
<path fill="none" stroke-width="0.4" stroke-linecap="butt" stroke-linejoin="round" stroke="rgb(0%, 0%, 0%)" stroke-opacity="1" stroke-miterlimit="10" d="M 112 624 L 112 592 L 144 592 L 144 624 Z M 112 624 " transform="matrix(1, 0, 0, -1, -63, 833)"/>
<path fill="none" stroke-width="0.4" stroke-linecap="butt" stroke-linejoin="round" stroke="rgb(0%, 0%, 0%)" stroke-opacity="1" stroke-miterlimit="10" d="M 352 624 L 352 592 L 384 592 L 384 624 Z M 352 624 " transform="matrix(1, 0, 0, -1, -63, 833)"/>
<path fill="none" stroke-width="0.4" stroke-linecap="butt" stroke-linejoin="round" stroke="rgb(0%, 0%, 0%)" stroke-opacity="1" stroke-miterlimit="10" d="M 280 800 Z M 280 800 " transform="matrix(1, 0, 0, -1, -63, 833)"/>
<g clip-path="url(#clip-0)">
<g fill="rgb(0%, 0%, 0%)" fill-opacity="1">
<use xlink:href="#glyph-0-0" x="11.311" y="24.9935"/>
</g>
</g>
<g clip-path="url(#clip-1)">
<g fill="rgb(0%, 0%, 0%)" fill-opacity="1">
<use xlink:href="#glyph-1-0" x="59.311" y="25.192"/>
</g>
</g>
<g clip-path="url(#clip-2)">
<g fill="rgb(0%, 0%, 0%)" fill-opacity="1">
<use xlink:href="#glyph-2-0" x="107.3115" y="25.2915"/>
</g>
</g>
<g clip-path="url(#clip-3)">
<g fill="rgb(0%, 0%, 0%)" fill-opacity="1">
<use xlink:href="#glyph-1-0" x="155.311" y="25.192"/>
</g>
</g>
<g clip-path="url(#clip-4)">
<g fill="rgb(0%, 0%, 0%)" fill-opacity="1">
<use xlink:href="#glyph-3-0" x="203.3115" y="24.981"/>
</g>
</g>
<g clip-path="url(#clip-5)">
<g fill="rgb(0%, 0%, 0%)" fill-opacity="1">
<use xlink:href="#glyph-4-0" x="251.3115" y="24.9935"/>
</g>
</g>
<g clip-path="url(#clip-6)">
<g fill="rgb(0%, 0%, 0%)" fill-opacity="1">
<use xlink:href="#glyph-5-0" x="299.311" y="25.192"/>
</g>
</g>
<g clip-path="url(#clip-7)">
<g fill="rgb(0%, 0%, 0%)" fill-opacity="1">
<use xlink:href="#glyph-6-0" x="347.3115" y="24.9935"/>
</g>
</g>
<g clip-path="url(#clip-8)">
<g fill="rgb(0%, 0%, 0%)" fill-opacity="1">
<use xlink:href="#glyph-3-0" x="395.3115" y="24.981"/>
</g>
</g>
<g clip-path="url(#clip-9)">
<g fill="rgb(0%, 0%, 0%)" fill-opacity="1">
<use xlink:href="#glyph-0-0" x="443.311" y="24.9935"/>
</g>
</g>
<path fill="none" stroke-width="0.4" stroke-linecap="butt" stroke-linejoin="round" stroke="rgb(0%, 0%, 0%)" stroke-opacity="1" stroke-miterlimit="10" d="M 96 816 C 96 824.835938 88.835938 832 80 832 C 71.164062 832 64 824.835938 64 816 C 64 807.164062 71.164062 800 80 800 C 88.835938 800 96 807.164062 96 816 Z M 96 816 " transform="matrix(1, 0, 0, -1, -63, 833)"/>
<g clip-path="url(#clip-10)">
<g fill="rgb(0%, 0%, 0%)" fill-opacity="1">
<use xlink:href="#glyph-7-0" x="11.311" y="232.9935"/>
</g>
</g>
<g clip-path="url(#clip-11)">
<g fill="rgb(0%, 0%, 0%)" fill-opacity="1">
<use xlink:href="#glyph-7-0" x="59.311" y="232.9935"/>
</g>
</g>
<g clip-path="url(#clip-12)">
<g fill="rgb(0%, 0%, 0%)" fill-opacity="1">
<use xlink:href="#glyph-7-0" x="107.311" y="192.9935"/>
</g>
</g>
<g clip-path="url(#clip-13)">
<g fill="rgb(0%, 0%, 0%)" fill-opacity="1">
<use xlink:href="#glyph-7-0" x="155.311" y="192.9935"/>
</g>
</g>
<g clip-path="url(#clip-14)">
<g fill="rgb(0%, 0%, 0%)" fill-opacity="1">
<use xlink:href="#glyph-7-0" x="203.311" y="192.9935"/>
</g>
</g>
<g clip-path="url(#clip-15)">
<g fill="rgb(0%, 0%, 0%)" fill-opacity="1">
<use xlink:href="#glyph-7-0" x="251.311" y="232.9935"/>
</g>
</g>
<g clip-path="url(#clip-16)">
<g fill="rgb(0%, 0%, 0%)" fill-opacity="1">
<use xlink:href="#glyph-7-0" x="299.311" y="232.9935"/>
</g>
</g>
<g clip-path="url(#clip-17)">
<g fill="rgb(0%, 0%, 0%)" fill-opacity="1">
<use xlink:href="#glyph-7-0" x="347.311" y="192.9935"/>
</g>
</g>
<g clip-path="url(#clip-18)">
<g fill="rgb(0%, 0%, 0%)" fill-opacity="1">
<use xlink:href="#glyph-7-0" x="395.311" y="192.9935"/>
</g>
</g>
<g clip-path="url(#clip-19)">
<g fill="rgb(0%, 0%, 0%)" fill-opacity="1">
<use xlink:href="#glyph-7-0" x="443.311" y="192.9935"/>
</g>
</g>
<g clip-path="url(#clip-20)">
<g fill="rgb(0%, 0%, 0%)" fill-opacity="1">
<use xlink:href="#glyph-7-0" x="35.311" y="192.9935"/>
</g>
</g>
<g clip-path="url(#clip-21)">
<g fill="rgb(0%, 0%, 0%)" fill-opacity="1">
<use xlink:href="#glyph-7-0" x="59.311" y="152.9935"/>
</g>
</g>
<g clip-path="url(#clip-22)">
<g fill="rgb(0%, 0%, 0%)" fill-opacity="1">
<use xlink:href="#glyph-7-0" x="179.311" y="152.9935"/>
</g>
</g>
<g clip-path="url(#clip-23)">
<g fill="rgb(0%, 0%, 0%)" fill-opacity="1">
<use xlink:href="#glyph-7-0" x="275.311" y="192.9935"/>
</g>
</g>
<g clip-path="url(#clip-24)">
<g fill="rgb(0%, 0%, 0%)" fill-opacity="1">
<use xlink:href="#glyph-7-0" x="299.311" y="152.9935"/>
</g>
</g>
<g clip-path="url(#clip-25)">
<g fill="rgb(0%, 0%, 0%)" fill-opacity="1">
<use xlink:href="#glyph-7-0" x="419.311" y="152.9935"/>
</g>
</g>
<g clip-path="url(#clip-26)">
<g fill="rgb(0%, 0%, 0%)" fill-opacity="1">
<use xlink:href="#glyph-7-0" x="107.311" y="112.9935"/>
</g>
</g>
<g clip-path="url(#clip-27)">
<g fill="rgb(0%, 0%, 0%)" fill-opacity="1">
<use xlink:href="#glyph-7-0" x="347.311" y="112.9935"/>
</g>
</g>
<g clip-path="url(#clip-28)">
<g fill="rgb(0%, 0%, 0%)" fill-opacity="1">
<use xlink:href="#glyph-7-0" x="227.311" y="72.9935"/>
</g>
</g>
<path fill="none" stroke-width="0.4" stroke-linecap="butt" stroke-linejoin="round" stroke="rgb(0%, 0%, 0%)" stroke-opacity="1" stroke-miterlimit="10" d="M 304.257812 335.671875 L 304.257812 303.671875 L 336.257812 303.671875 L 336.257812 335.671875 Z M 304.257812 335.671875 " transform="matrix(1, 0, 0, -1, -63, 833)"/>
<path fill="none" stroke-width="0.4" stroke-linecap="butt" stroke-linejoin="round" stroke="rgb(0%, 0%, 0%)" stroke-opacity="1" stroke-miterlimit="10" d="M 256.257812 375.671875 L 256.257812 343.671875 L 288.257812 343.671875 L 288.257812 375.671875 Z M 256.257812 375.671875 " transform="matrix(1, 0, 0, -1, -63, 833)"/>
<path fill="none" stroke-width="1.2" stroke-linecap="butt" stroke-linejoin="round" stroke="rgb(0%, 0%, 0%)" stroke-opacity="1" stroke-miterlimit="10" d="M 64.257812 455.671875 L 64.257812 423.671875 L 288.257812 423.671875 L 288.257812 455.671875 Z M 64.257812 455.671875 " transform="matrix(1, 0, 0, -1, -63, 833)"/>
<path fill="none" stroke-width="0.4" stroke-linecap="butt" stroke-linejoin="round" stroke="rgb(0%, 0%, 0%)" stroke-opacity="1" stroke-miterlimit="10" d="M 144.257812 527.671875 C 144.257812 536.507812 137.09375 543.671875 128.257812 543.671875 C 119.421875 543.671875 112.257812 536.507812 112.257812 527.671875 C 112.257812 518.835938 119.421875 511.671875 128.257812 511.671875 C 137.09375 511.671875 144.257812 518.835938 144.257812 527.671875 Z M 144.257812 527.671875 " transform="matrix(1, 0, 0, -1, -63, 833)"/>
<path fill="none" stroke-width="0.4" stroke-linecap="butt" stroke-linejoin="round" stroke="rgb(0%, 0%, 0%)" stroke-opacity="1" stroke-miterlimit="10" d="M 192.257812 527.671875 C 192.257812 536.507812 185.09375 543.671875 176.257812 543.671875 C 167.421875 543.671875 160.257812 536.507812 160.257812 527.671875 C 160.257812 518.835938 167.421875 511.671875 176.257812 511.671875 C 185.09375 511.671875 192.257812 518.835938 192.257812 527.671875 Z M 192.257812 527.671875 " transform="matrix(1, 0, 0, -1, -63, 833)"/>
<path fill="none" stroke-width="0.4" stroke-linecap="butt" stroke-linejoin="round" stroke="rgb(0%, 0%, 0%)" stroke-opacity="1" stroke-miterlimit="10" d="M 240.257812 527.671875 C 240.257812 536.507812 233.09375 543.671875 224.257812 543.671875 C 215.421875 543.671875 208.257812 536.507812 208.257812 527.671875 C 208.257812 518.835938 215.421875 511.671875 224.257812 511.671875 C 233.09375 511.671875 240.257812 518.835938 240.257812 527.671875 Z M 240.257812 527.671875 " transform="matrix(1, 0, 0, -1, -63, 833)"/>
<path fill="none" stroke-width="0.4" stroke-linecap="butt" stroke-linejoin="round" stroke="rgb(0%, 0%, 0%)" stroke-opacity="1" stroke-miterlimit="10" d="M 288.257812 527.671875 C 288.257812 536.507812 281.09375 543.671875 272.257812 543.671875 C 263.421875 543.671875 256.257812 536.507812 256.257812 527.671875 C 256.257812 518.835938 263.421875 511.671875 272.257812 511.671875 C 281.09375 511.671875 288.257812 518.835938 288.257812 527.671875 Z M 288.257812 527.671875 " transform="matrix(1, 0, 0, -1, -63, 833)"/>
<path fill="none" stroke-width="0.4" stroke-linecap="butt" stroke-linejoin="round" stroke="rgb(0%, 0%, 0%)" stroke-opacity="1" stroke-miterlimit="10" d="M 336.257812 527.671875 C 336.257812 536.507812 329.09375 543.671875 320.257812 543.671875 C 311.421875 543.671875 304.257812 536.507812 304.257812 527.671875 C 304.257812 518.835938 311.421875 511.671875 320.257812 511.671875 C 329.09375 511.671875 336.257812 518.835938 336.257812 527.671875 Z M 336.257812 527.671875 " transform="matrix(1, 0, 0, -1, -63, 833)"/>
<path fill="none" stroke-width="0.4" stroke-linecap="butt" stroke-linejoin="round" stroke="rgb(0%, 0%, 0%)" stroke-opacity="1" stroke-miterlimit="10" d="M 384.257812 527.671875 C 384.257812 536.507812 377.09375 543.671875 368.257812 543.671875 C 359.421875 543.671875 352.257812 536.507812 352.257812 527.671875 C 352.257812 518.835938 359.421875 511.671875 368.257812 511.671875 C 377.09375 511.671875 384.257812 518.835938 384.257812 527.671875 Z M 384.257812 527.671875 " transform="matrix(1, 0, 0, -1, -63, 833)"/>
<path fill="none" stroke-width="0.4" stroke-linecap="butt" stroke-linejoin="round" stroke="rgb(0%, 0%, 0%)" stroke-opacity="1" stroke-miterlimit="10" d="M 432.257812 527.671875 C 432.257812 536.507812 425.09375 543.671875 416.257812 543.671875 C 407.421875 543.671875 400.257812 536.507812 400.257812 527.671875 C 400.257812 518.835938 407.421875 511.671875 416.257812 511.671875 C 425.09375 511.671875 432.257812 518.835938 432.257812 527.671875 Z M 432.257812 527.671875 " transform="matrix(1, 0, 0, -1, -63, 833)"/>
<path fill="none" stroke-width="0.4" stroke-linecap="butt" stroke-linejoin="round" stroke="rgb(0%, 0%, 0%)" stroke-opacity="1" stroke-miterlimit="10" d="M 480.257812 527.671875 C 480.257812 536.507812 473.09375 543.671875 464.257812 543.671875 C 455.421875 543.671875 448.257812 536.507812 448.257812 527.671875 C 448.257812 518.835938 455.421875 511.671875 464.257812 511.671875 C 473.09375 511.671875 480.257812 518.835938 480.257812 527.671875 Z M 480.257812 527.671875 " transform="matrix(1, 0, 0, -1, -63, 833)"/>
<path fill="none" stroke-width="0.4" stroke-linecap="butt" stroke-linejoin="round" stroke="rgb(0%, 0%, 0%)" stroke-opacity="1" stroke-miterlimit="10" d="M 528.257812 527.671875 C 528.257812 536.507812 521.09375 543.671875 512.257812 543.671875 C 503.421875 543.671875 496.257812 536.507812 496.257812 527.671875 C 496.257812 518.835938 503.421875 511.671875 512.257812 511.671875 C 521.09375 511.671875 528.257812 518.835938 528.257812 527.671875 Z M 528.257812 527.671875 " transform="matrix(1, 0, 0, -1, -63, 833)"/>
<path fill="none" stroke-width="0.4" stroke-linecap="butt" stroke-linejoin="round" stroke="rgb(0%, 0%, 0%)" stroke-opacity="1" stroke-miterlimit="10" d="M 64.257812 495.671875 L 64.257812 463.671875 L 528.257812 463.671875 L 528.257812 495.671875 Z M 64.257812 495.671875 " transform="matrix(1, 0, 0, -1, -63, 833)"/>
<path fill="none" stroke-width="0.4" stroke-linecap="butt" stroke-linejoin="round" stroke="rgb(0%, 0%, 0%)" stroke-opacity="1" stroke-miterlimit="10" d="M 304.257812 455.671875 L 304.257812 423.671875 L 528.257812 423.671875 L 528.257812 455.671875 Z M 304.257812 455.671875 " transform="matrix(1, 0, 0, -1, -63, 833)"/>
<path fill="none" stroke-width="0.4" stroke-linecap="butt" stroke-linejoin="round" stroke="rgb(0%, 0%, 0%)" stroke-opacity="1" stroke-miterlimit="10" d="M 64.257812 415.671875 L 64.257812 383.671875 L 192.257812 383.671875 L 192.257812 415.671875 Z M 64.257812 415.671875 " transform="matrix(1, 0, 0, -1, -63, 833)"/>
<path fill="none" stroke-width="0.4" stroke-linecap="butt" stroke-linejoin="round" stroke="rgb(0%, 0%, 0%)" stroke-opacity="1" stroke-miterlimit="10" d="M 208.257812 415.671875 L 208.257812 383.671875 L 288.257812 383.671875 L 288.257812 415.671875 Z M 208.257812 415.671875 " transform="matrix(1, 0, 0, -1, -63, 833)"/>
<path fill="none" stroke-width="0.4" stroke-linecap="butt" stroke-linejoin="round" stroke="rgb(0%, 0%, 0%)" stroke-opacity="1" stroke-miterlimit="10" d="M 304.257812 415.671875 L 304.257812 383.671875 L 432.257812 383.671875 L 432.257812 415.671875 Z M 304.257812 415.671875 " transform="matrix(1, 0, 0, -1, -63, 833)"/>
<path fill="none" stroke-width="0.4" stroke-linecap="butt" stroke-linejoin="round" stroke="rgb(0%, 0%, 0%)" stroke-opacity="1" stroke-miterlimit="10" d="M 448.257812 415.671875 L 448.257812 383.671875 L 528.257812 383.671875 L 528.257812 415.671875 Z M 448.257812 415.671875 " transform="matrix(1, 0, 0, -1, -63, 833)"/>
<path fill="none" stroke-width="0.4" stroke-linecap="butt" stroke-linejoin="round" stroke="rgb(0%, 0%, 0%)" stroke-opacity="1" stroke-miterlimit="10" d="M 64.257812 375.671875 L 64.257812 343.671875 L 144.257812 343.671875 L 144.257812 375.671875 Z M 64.257812 375.671875 " transform="matrix(1, 0, 0, -1, -63, 833)"/>
<path fill="none" stroke-width="0.4" stroke-linecap="butt" stroke-linejoin="round" stroke="rgb(0%, 0%, 0%)" stroke-opacity="1" stroke-miterlimit="10" d="M 160.257812 375.671875 L 160.257812 343.671875 L 192.257812 343.671875 L 192.257812 375.671875 Z M 160.257812 375.671875 " transform="matrix(1, 0, 0, -1, -63, 833)"/>
<path fill="none" stroke-width="0.4" stroke-linecap="butt" stroke-linejoin="round" stroke="rgb(0%, 0%, 0%)" stroke-opacity="1" stroke-miterlimit="10" d="M 208.257812 375.671875 L 208.257812 343.671875 L 240.257812 343.671875 L 240.257812 375.671875 Z M 208.257812 375.671875 " transform="matrix(1, 0, 0, -1, -63, 833)"/>
<path fill-rule="evenodd" fill="rgb(100%, 75.3%, 79.6%)" fill-opacity="1" stroke-width="1.2" stroke-linecap="butt" stroke-linejoin="round" stroke="rgb(0%, 0%, 0%)" stroke-opacity="1" stroke-miterlimit="10" d="M 304.257812 375.671875 L 304.257812 343.671875 L 384.257812 343.671875 L 384.257812 375.671875 Z M 304.257812 375.671875 " transform="matrix(1, 0, 0, -1, -63, 833)"/>
<path fill="none" stroke-width="0.4" stroke-linecap="butt" stroke-linejoin="round" stroke="rgb(0%, 0%, 0%)" stroke-opacity="1" stroke-miterlimit="10" d="M 400.257812 375.671875 L 400.257812 343.671875 L 432.257812 343.671875 L 432.257812 375.671875 Z M 400.257812 375.671875 " transform="matrix(1, 0, 0, -1, -63, 833)"/>
<path fill="none" stroke-width="0.4" stroke-linecap="butt" stroke-linejoin="round" stroke="rgb(0%, 0%, 0%)" stroke-opacity="1" stroke-miterlimit="10" d="M 448.257812 375.671875 L 448.257812 343.671875 L 480.257812 343.671875 L 480.257812 375.671875 Z M 448.257812 375.671875 " transform="matrix(1, 0, 0, -1, -63, 833)"/>
<path fill="none" stroke-width="0.4" stroke-linecap="butt" stroke-linejoin="round" stroke="rgb(0%, 0%, 0%)" stroke-opacity="1" stroke-miterlimit="10" d="M 496.257812 375.671875 L 496.257812 343.671875 L 528.257812 343.671875 L 528.257812 375.671875 Z M 496.257812 375.671875 " transform="matrix(1, 0, 0, -1, -63, 833)"/>
<path fill="none" stroke-width="0.4" stroke-linecap="butt" stroke-linejoin="round" stroke="rgb(0%, 0%, 0%)" stroke-opacity="1" stroke-miterlimit="10" d="M 64.257812 335.671875 L 64.257812 303.671875 L 96.257812 303.671875 L 96.257812 335.671875 Z M 64.257812 335.671875 " transform="matrix(1, 0, 0, -1, -63, 833)"/>
<path fill="none" stroke-width="0.4" stroke-linecap="butt" stroke-linejoin="round" stroke="rgb(0%, 0%, 0%)" stroke-opacity="1" stroke-miterlimit="10" d="M 112.257812 335.671875 L 112.257812 303.671875 L 144.257812 303.671875 L 144.257812 335.671875 Z M 112.257812 335.671875 " transform="matrix(1, 0, 0, -1, -63, 833)"/>
<path fill="none" stroke-width="0.4" stroke-linecap="butt" stroke-linejoin="round" stroke="rgb(0%, 0%, 0%)" stroke-opacity="1" stroke-miterlimit="10" d="M 352.257812 335.671875 L 352.257812 303.671875 L 384.257812 303.671875 L 384.257812 335.671875 Z M 352.257812 335.671875 " transform="matrix(1, 0, 0, -1, -63, 833)"/>
<path fill="none" stroke-width="0.4" stroke-linecap="butt" stroke-linejoin="round" stroke="rgb(0%, 0%, 0%)" stroke-opacity="1" stroke-miterlimit="10" d="M 280.257812 511.671875 Z M 280.257812 511.671875 " transform="matrix(1, 0, 0, -1, -63, 833)"/>
<g clip-path="url(#clip-29)">
<g fill="rgb(0%, 0%, 0%)" fill-opacity="1">
<use xlink:href="#glyph-0-0" x="11.568077" y="313.32282"/>
</g>
</g>
<g clip-path="url(#clip-30)">
<g fill="rgb(0%, 0%, 0%)" fill-opacity="1">
<use xlink:href="#glyph-1-0" x="59.568077" y="313.52132"/>
</g>
</g>
<g clip-path="url(#clip-31)">
<g fill="rgb(0%, 0%, 0%)" fill-opacity="1">
<use xlink:href="#glyph-2-0" x="107.568577" y="313.62082"/>
</g>
</g>
<g clip-path="url(#clip-32)">
<g fill="rgb(0%, 0%, 0%)" fill-opacity="1">
<use xlink:href="#glyph-1-0" x="155.568077" y="313.52132"/>
</g>
</g>
<g clip-path="url(#clip-33)">
<g fill="rgb(0%, 0%, 0%)" fill-opacity="1">
<use xlink:href="#glyph-3-0" x="203.568577" y="313.31032"/>
</g>
</g>
<g clip-path="url(#clip-34)">
<g fill="rgb(0%, 0%, 0%)" fill-opacity="1">
<use xlink:href="#glyph-4-0" x="251.568577" y="313.32282"/>
</g>
</g>
<g clip-path="url(#clip-35)">
<g fill="rgb(0%, 0%, 0%)" fill-opacity="1">
<use xlink:href="#glyph-5-0" x="299.568077" y="313.52132"/>
</g>
</g>
<g clip-path="url(#clip-36)">
<g fill="rgb(0%, 0%, 0%)" fill-opacity="1">
<use xlink:href="#glyph-6-0" x="347.568577" y="313.32282"/>
</g>
</g>
<g clip-path="url(#clip-37)">
<g fill="rgb(0%, 0%, 0%)" fill-opacity="1">
<use xlink:href="#glyph-3-0" x="395.568577" y="313.31032"/>
</g>
</g>
<g clip-path="url(#clip-38)">
<g fill="rgb(0%, 0%, 0%)" fill-opacity="1">
<use xlink:href="#glyph-0-0" x="443.568077" y="313.32282"/>
</g>
</g>
<path fill="none" stroke-width="0.4" stroke-linecap="butt" stroke-linejoin="round" stroke="rgb(0%, 0%, 0%)" stroke-opacity="1" stroke-miterlimit="10" d="M 96.257812 527.671875 C 96.257812 536.507812 89.09375 543.671875 80.257812 543.671875 C 71.421875 543.671875 64.257812 536.507812 64.257812 527.671875 C 64.257812 518.835938 71.421875 511.671875 80.257812 511.671875 C 89.09375 511.671875 96.257812 518.835938 96.257812 527.671875 Z M 96.257812 527.671875 " transform="matrix(1, 0, 0, -1, -63, 833)"/>
<g clip-path="url(#clip-39)">
<g fill="rgb(0%, 0%, 0%)" fill-opacity="1">
<use xlink:href="#glyph-7-0" x="11.568077" y="521.32282"/>
</g>
</g>
<g clip-path="url(#clip-40)">
<g fill="rgb(0%, 0%, 0%)" fill-opacity="1">
<use xlink:href="#glyph-7-0" x="59.568077" y="521.32282"/>
</g>
</g>
<g clip-path="url(#clip-41)">
<g fill="rgb(0%, 0%, 0%)" fill-opacity="1">
<use xlink:href="#glyph-7-0" x="107.568077" y="481.32282"/>
</g>
</g>
<g clip-path="url(#clip-42)">
<g fill="rgb(0%, 0%, 0%)" fill-opacity="1">
<use xlink:href="#glyph-7-0" x="155.568077" y="481.32282"/>
</g>
</g>
<g clip-path="url(#clip-43)">
<g fill="rgb(0%, 0%, 0%)" fill-opacity="1">
<use xlink:href="#glyph-7-0" x="203.568077" y="481.32282"/>
</g>
</g>
<g clip-path="url(#clip-44)">
<g fill="rgb(0%, 0%, 0%)" fill-opacity="1">
<use xlink:href="#glyph-7-0" x="251.568077" y="521.32282"/>
</g>
</g>
<g clip-path="url(#clip-45)">
<g fill="rgb(0%, 0%, 0%)" fill-opacity="1">
<use xlink:href="#glyph-7-0" x="299.568077" y="521.32282"/>
</g>
</g>
<g clip-path="url(#clip-46)">
<g fill="rgb(0%, 0%, 0%)" fill-opacity="1">
<use xlink:href="#glyph-7-0" x="347.568077" y="481.32282"/>
</g>
</g>
<g clip-path="url(#clip-47)">
<g fill="rgb(0%, 0%, 0%)" fill-opacity="1">
<use xlink:href="#glyph-7-0" x="395.568077" y="481.32282"/>
</g>
</g>
<g clip-path="url(#clip-48)">
<g fill="rgb(0%, 0%, 0%)" fill-opacity="1">
<use xlink:href="#glyph-7-0" x="443.568077" y="481.32282"/>
</g>
</g>
<g clip-path="url(#clip-49)">
<g fill="rgb(0%, 0%, 0%)" fill-opacity="1">
<use xlink:href="#glyph-7-0" x="35.568077" y="481.32282"/>
</g>
</g>
<g clip-path="url(#clip-50)">
<g fill="rgb(0%, 0%, 0%)" fill-opacity="1">
<use xlink:href="#glyph-7-0" x="59.568077" y="441.32282"/>
</g>
</g>
<g clip-path="url(#clip-51)">
<g fill="rgb(0%, 0%, 0%)" fill-opacity="1">
<use xlink:href="#glyph-7-0" x="179.568077" y="441.32282"/>
</g>
</g>
<g clip-path="url(#clip-52)">
<g fill="rgb(100%, 54.9%, 0%)" fill-opacity="1">
<use xlink:href="#glyph-8-0" x="274.279577" y="481.45932"/>
</g>
</g>
<g clip-path="url(#clip-53)">
<g fill="rgb(0%, 0%, 0%)" fill-opacity="1">
<use xlink:href="#glyph-7-0" x="299.568077" y="441.32282"/>
</g>
</g>
<g clip-path="url(#clip-54)">
<g fill="rgb(0%, 0%, 0%)" fill-opacity="1">
<use xlink:href="#glyph-7-0" x="419.568077" y="441.32282"/>
</g>
</g>
<g clip-path="url(#clip-55)">
<g fill="rgb(100%, 54.9%, 0%)" fill-opacity="1">
<use xlink:href="#glyph-8-0" x="106.279577" y="401.45932"/>
</g>
</g>
<g clip-path="url(#clip-56)">
<g fill="rgb(0%, 0%, 0%)" fill-opacity="1">
<use xlink:href="#glyph-7-0" x="347.568077" y="401.32282"/>
</g>
</g>
<g clip-path="url(#clip-57)">
<g fill="rgb(0%, 0%, 0%)" fill-opacity="1">
<use xlink:href="#glyph-7-0" x="227.568077" y="361.32282"/>
</g>
</g>
<path fill="none" stroke-width="0.4" stroke-linecap="butt" stroke-linejoin="round" stroke="rgb(0%, 0%, 0%)" stroke-opacity="1" stroke-miterlimit="10" d="M 304.257812 47.671875 L 304.257812 15.671875 L 336.257812 15.671875 L 336.257812 47.671875 Z M 304.257812 47.671875 " transform="matrix(1, 0, 0, -1, -63, 833)"/>
<path fill="none" stroke-width="0.4" stroke-linecap="butt" stroke-linejoin="round" stroke="rgb(0%, 0%, 0%)" stroke-opacity="1" stroke-miterlimit="10" d="M 256.257812 87.671875 L 256.257812 55.671875 L 288.257812 55.671875 L 288.257812 87.671875 Z M 256.257812 87.671875 " transform="matrix(1, 0, 0, -1, -63, 833)"/>
<path fill="none" stroke-width="0.4" stroke-linecap="butt" stroke-linejoin="round" stroke="rgb(0%, 0%, 0%)" stroke-opacity="1" stroke-miterlimit="10" d="M 64.257812 167.671875 L 64.257812 135.671875 L 288.257812 135.671875 L 288.257812 167.671875 Z M 64.257812 167.671875 " transform="matrix(1, 0, 0, -1, -63, 833)"/>
<path fill="none" stroke-width="0.4" stroke-linecap="butt" stroke-linejoin="round" stroke="rgb(0%, 0%, 0%)" stroke-opacity="1" stroke-miterlimit="10" d="M 144.257812 239.671875 C 144.257812 248.507812 137.09375 255.671875 128.257812 255.671875 C 119.421875 255.671875 112.257812 248.507812 112.257812 239.671875 C 112.257812 230.835938 119.421875 223.671875 128.257812 223.671875 C 137.09375 223.671875 144.257812 230.835938 144.257812 239.671875 Z M 144.257812 239.671875 " transform="matrix(1, 0, 0, -1, -63, 833)"/>
<path fill="none" stroke-width="0.4" stroke-linecap="butt" stroke-linejoin="round" stroke="rgb(0%, 0%, 0%)" stroke-opacity="1" stroke-miterlimit="10" d="M 192.257812 239.671875 C 192.257812 248.507812 185.09375 255.671875 176.257812 255.671875 C 167.421875 255.671875 160.257812 248.507812 160.257812 239.671875 C 160.257812 230.835938 167.421875 223.671875 176.257812 223.671875 C 185.09375 223.671875 192.257812 230.835938 192.257812 239.671875 Z M 192.257812 239.671875 " transform="matrix(1, 0, 0, -1, -63, 833)"/>
<path fill="none" stroke-width="0.4" stroke-linecap="butt" stroke-linejoin="round" stroke="rgb(0%, 0%, 0%)" stroke-opacity="1" stroke-miterlimit="10" d="M 240.257812 239.671875 C 240.257812 248.507812 233.09375 255.671875 224.257812 255.671875 C 215.421875 255.671875 208.257812 248.507812 208.257812 239.671875 C 208.257812 230.835938 215.421875 223.671875 224.257812 223.671875 C 233.09375 223.671875 240.257812 230.835938 240.257812 239.671875 Z M 240.257812 239.671875 " transform="matrix(1, 0, 0, -1, -63, 833)"/>
<path fill="none" stroke-width="0.4" stroke-linecap="butt" stroke-linejoin="round" stroke="rgb(0%, 0%, 0%)" stroke-opacity="1" stroke-miterlimit="10" d="M 288.257812 239.671875 C 288.257812 248.507812 281.09375 255.671875 272.257812 255.671875 C 263.421875 255.671875 256.257812 248.507812 256.257812 239.671875 C 256.257812 230.835938 263.421875 223.671875 272.257812 223.671875 C 281.09375 223.671875 288.257812 230.835938 288.257812 239.671875 Z M 288.257812 239.671875 " transform="matrix(1, 0, 0, -1, -63, 833)"/>
<path fill="none" stroke-width="0.4" stroke-linecap="butt" stroke-linejoin="round" stroke="rgb(0%, 0%, 0%)" stroke-opacity="1" stroke-miterlimit="10" d="M 336.257812 239.671875 C 336.257812 248.507812 329.09375 255.671875 320.257812 255.671875 C 311.421875 255.671875 304.257812 248.507812 304.257812 239.671875 C 304.257812 230.835938 311.421875 223.671875 320.257812 223.671875 C 329.09375 223.671875 336.257812 230.835938 336.257812 239.671875 Z M 336.257812 239.671875 " transform="matrix(1, 0, 0, -1, -63, 833)"/>
<path fill="none" stroke-width="0.4" stroke-linecap="butt" stroke-linejoin="round" stroke="rgb(0%, 0%, 0%)" stroke-opacity="1" stroke-miterlimit="10" d="M 384.257812 239.671875 C 384.257812 248.507812 377.09375 255.671875 368.257812 255.671875 C 359.421875 255.671875 352.257812 248.507812 352.257812 239.671875 C 352.257812 230.835938 359.421875 223.671875 368.257812 223.671875 C 377.09375 223.671875 384.257812 230.835938 384.257812 239.671875 Z M 384.257812 239.671875 " transform="matrix(1, 0, 0, -1, -63, 833)"/>
<path fill="none" stroke-width="0.4" stroke-linecap="butt" stroke-linejoin="round" stroke="rgb(0%, 0%, 0%)" stroke-opacity="1" stroke-miterlimit="10" d="M 432.257812 239.671875 C 432.257812 248.507812 425.09375 255.671875 416.257812 255.671875 C 407.421875 255.671875 400.257812 248.507812 400.257812 239.671875 C 400.257812 230.835938 407.421875 223.671875 416.257812 223.671875 C 425.09375 223.671875 432.257812 230.835938 432.257812 239.671875 Z M 432.257812 239.671875 " transform="matrix(1, 0, 0, -1, -63, 833)"/>
<path fill="none" stroke-width="0.4" stroke-linecap="butt" stroke-linejoin="round" stroke="rgb(0%, 0%, 0%)" stroke-opacity="1" stroke-miterlimit="10" d="M 480.257812 239.671875 C 480.257812 248.507812 473.09375 255.671875 464.257812 255.671875 C 455.421875 255.671875 448.257812 248.507812 448.257812 239.671875 C 448.257812 230.835938 455.421875 223.671875 464.257812 223.671875 C 473.09375 223.671875 480.257812 230.835938 480.257812 239.671875 Z M 480.257812 239.671875 " transform="matrix(1, 0, 0, -1, -63, 833)"/>
<path fill="none" stroke-width="0.4" stroke-linecap="butt" stroke-linejoin="round" stroke="rgb(0%, 0%, 0%)" stroke-opacity="1" stroke-miterlimit="10" d="M 528.257812 239.671875 C 528.257812 248.507812 521.09375 255.671875 512.257812 255.671875 C 503.421875 255.671875 496.257812 248.507812 496.257812 239.671875 C 496.257812 230.835938 503.421875 223.671875 512.257812 223.671875 C 521.09375 223.671875 528.257812 230.835938 528.257812 239.671875 Z M 528.257812 239.671875 " transform="matrix(1, 0, 0, -1, -63, 833)"/>
<path fill="none" stroke-width="0.4" stroke-linecap="butt" stroke-linejoin="round" stroke="rgb(0%, 0%, 0%)" stroke-opacity="1" stroke-miterlimit="10" d="M 64.257812 207.671875 L 64.257812 175.671875 L 528.257812 175.671875 L 528.257812 207.671875 Z M 64.257812 207.671875 " transform="matrix(1, 0, 0, -1, -63, 833)"/>
<path fill="none" stroke-width="0.4" stroke-linecap="butt" stroke-linejoin="round" stroke="rgb(0%, 0%, 0%)" stroke-opacity="1" stroke-miterlimit="10" d="M 304.257812 167.671875 L 304.257812 135.671875 L 528.257812 135.671875 L 528.257812 167.671875 Z M 304.257812 167.671875 " transform="matrix(1, 0, 0, -1, -63, 833)"/>
<path fill="none" stroke-width="0.4" stroke-linecap="butt" stroke-linejoin="round" stroke="rgb(0%, 0%, 0%)" stroke-opacity="1" stroke-miterlimit="10" d="M 64.257812 127.671875 L 64.257812 95.671875 L 192.257812 95.671875 L 192.257812 127.671875 Z M 64.257812 127.671875 " transform="matrix(1, 0, 0, -1, -63, 833)"/>
<path fill="none" stroke-width="1.2" stroke-linecap="butt" stroke-linejoin="round" stroke="rgb(0%, 0%, 0%)" stroke-opacity="1" stroke-miterlimit="10" d="M 208.257812 127.671875 L 208.257812 95.671875 L 288.257812 95.671875 L 288.257812 127.671875 Z M 208.257812 127.671875 " transform="matrix(1, 0, 0, -1, -63, 833)"/>
<path fill="none" stroke-width="1.2" stroke-linecap="butt" stroke-linejoin="round" stroke="rgb(0%, 0%, 0%)" stroke-opacity="1" stroke-miterlimit="10" d="M 304.257812 127.671875 L 304.257812 95.671875 L 432.257812 95.671875 L 432.257812 127.671875 Z M 304.257812 127.671875 " transform="matrix(1, 0, 0, -1, -63, 833)"/>
<path fill="none" stroke-width="0.4" stroke-linecap="butt" stroke-linejoin="round" stroke="rgb(0%, 0%, 0%)" stroke-opacity="1" stroke-miterlimit="10" d="M 448.257812 127.671875 L 448.257812 95.671875 L 528.257812 95.671875 L 528.257812 127.671875 Z M 448.257812 127.671875 " transform="matrix(1, 0, 0, -1, -63, 833)"/>
<path fill="none" stroke-width="0.4" stroke-linecap="butt" stroke-linejoin="round" stroke="rgb(0%, 0%, 0%)" stroke-opacity="1" stroke-miterlimit="10" d="M 64.257812 87.671875 L 64.257812 55.671875 L 144.257812 55.671875 L 144.257812 87.671875 Z M 64.257812 87.671875 " transform="matrix(1, 0, 0, -1, -63, 833)"/>
<path fill="none" stroke-width="0.4" stroke-linecap="butt" stroke-linejoin="round" stroke="rgb(0%, 0%, 0%)" stroke-opacity="1" stroke-miterlimit="10" d="M 160.257812 87.671875 L 160.257812 55.671875 L 192.257812 55.671875 L 192.257812 87.671875 Z M 160.257812 87.671875 " transform="matrix(1, 0, 0, -1, -63, 833)"/>
<path fill="none" stroke-width="0.4" stroke-linecap="butt" stroke-linejoin="round" stroke="rgb(0%, 0%, 0%)" stroke-opacity="1" stroke-miterlimit="10" d="M 208.257812 87.671875 L 208.257812 55.671875 L 240.257812 55.671875 L 240.257812 87.671875 Z M 208.257812 87.671875 " transform="matrix(1, 0, 0, -1, -63, 833)"/>
<path fill="none" stroke-width="0.4" stroke-linecap="butt" stroke-linejoin="round" stroke="rgb(0%, 0%, 0%)" stroke-opacity="1" stroke-miterlimit="10" d="M 304.257812 87.671875 L 304.257812 55.671875 L 384.257812 55.671875 L 384.257812 87.671875 Z M 304.257812 87.671875 " transform="matrix(1, 0, 0, -1, -63, 833)"/>
<path fill="none" stroke-width="0.4" stroke-linecap="butt" stroke-linejoin="round" stroke="rgb(0%, 0%, 0%)" stroke-opacity="1" stroke-miterlimit="10" d="M 400.257812 87.671875 L 400.257812 55.671875 L 432.257812 55.671875 L 432.257812 87.671875 Z M 400.257812 87.671875 " transform="matrix(1, 0, 0, -1, -63, 833)"/>
<path fill-rule="evenodd" fill="rgb(100%, 75.3%, 79.6%)" fill-opacity="1" stroke-width="1.2" stroke-linecap="butt" stroke-linejoin="round" stroke="rgb(0%, 0%, 0%)" stroke-opacity="1" stroke-miterlimit="10" d="M 448.257812 87.671875 L 448.257812 55.671875 L 480.257812 55.671875 L 480.257812 87.671875 Z M 448.257812 87.671875 " transform="matrix(1, 0, 0, -1, -63, 833)"/>
<path fill="none" stroke-width="0.4" stroke-linecap="butt" stroke-linejoin="round" stroke="rgb(0%, 0%, 0%)" stroke-opacity="1" stroke-miterlimit="10" d="M 496.257812 87.671875 L 496.257812 55.671875 L 528.257812 55.671875 L 528.257812 87.671875 Z M 496.257812 87.671875 " transform="matrix(1, 0, 0, -1, -63, 833)"/>
<path fill="none" stroke-width="0.4" stroke-linecap="butt" stroke-linejoin="round" stroke="rgb(0%, 0%, 0%)" stroke-opacity="1" stroke-miterlimit="10" d="M 64.257812 47.671875 L 64.257812 15.671875 L 96.257812 15.671875 L 96.257812 47.671875 Z M 64.257812 47.671875 " transform="matrix(1, 0, 0, -1, -63, 833)"/>
<path fill="none" stroke-width="0.4" stroke-linecap="butt" stroke-linejoin="round" stroke="rgb(0%, 0%, 0%)" stroke-opacity="1" stroke-miterlimit="10" d="M 112.257812 47.671875 L 112.257812 15.671875 L 144.257812 15.671875 L 144.257812 47.671875 Z M 112.257812 47.671875 " transform="matrix(1, 0, 0, -1, -63, 833)"/>
<path fill="none" stroke-width="0.4" stroke-linecap="butt" stroke-linejoin="round" stroke="rgb(0%, 0%, 0%)" stroke-opacity="1" stroke-miterlimit="10" d="M 352.257812 47.671875 L 352.257812 15.671875 L 384.257812 15.671875 L 384.257812 47.671875 Z M 352.257812 47.671875 " transform="matrix(1, 0, 0, -1, -63, 833)"/>
<path fill="none" stroke-width="0.4" stroke-linecap="butt" stroke-linejoin="round" stroke="rgb(0%, 0%, 0%)" stroke-opacity="1" stroke-miterlimit="10" d="M 280.257812 223.671875 Z M 280.257812 223.671875 " transform="matrix(1, 0, 0, -1, -63, 833)"/>
<g clip-path="url(#clip-58)">
<g fill="rgb(0%, 0%, 0%)" fill-opacity="1">
<use xlink:href="#glyph-0-0" x="11.568077" y="601.3225"/>
</g>
</g>
<g clip-path="url(#clip-59)">
<g fill="rgb(0%, 0%, 0%)" fill-opacity="1">
<use xlink:href="#glyph-1-0" x="59.5681" y="601.521"/>
</g>
</g>
<g clip-path="url(#clip-60)">
<g fill="rgb(0%, 0%, 0%)" fill-opacity="1">
<use xlink:href="#glyph-2-0" x="107.5686" y="601.6205"/>
</g>
</g>
<g clip-path="url(#clip-61)">
<g fill="rgb(0%, 0%, 0%)" fill-opacity="1">
<use xlink:href="#glyph-1-0" x="155.568" y="601.521"/>
</g>
</g>
<g clip-path="url(#clip-62)">
<g fill="rgb(0%, 0%, 0%)" fill-opacity="1">
<use xlink:href="#glyph-3-0" x="203.5685" y="601.31"/>
</g>
</g>
<g clip-path="url(#clip-63)">
<g fill="rgb(0%, 0%, 0%)" fill-opacity="1">
<use xlink:href="#glyph-4-0" x="251.5685" y="601.3225"/>
</g>
</g>
<g clip-path="url(#clip-64)">
<g fill="rgb(0%, 0%, 0%)" fill-opacity="1">
<use xlink:href="#glyph-5-0" x="299.568" y="601.521"/>
</g>
</g>
<g clip-path="url(#clip-65)">
<g fill="rgb(0%, 0%, 0%)" fill-opacity="1">
<use xlink:href="#glyph-6-0" x="347.5685" y="601.3225"/>
</g>
</g>
<g clip-path="url(#clip-66)">
<g fill="rgb(0%, 0%, 0%)" fill-opacity="1">
<use xlink:href="#glyph-3-0" x="395.5685" y="601.31"/>
</g>
</g>
<g clip-path="url(#clip-67)">
<g fill="rgb(0%, 0%, 0%)" fill-opacity="1">
<use xlink:href="#glyph-0-0" x="443.568" y="601.3225"/>
</g>
</g>
<path fill="none" stroke-width="0.4" stroke-linecap="butt" stroke-linejoin="round" stroke="rgb(0%, 0%, 0%)" stroke-opacity="1" stroke-miterlimit="10" d="M 96.257812 239.671875 C 96.257812 248.507812 89.09375 255.671875 80.257812 255.671875 C 71.421875 255.671875 64.257812 248.507812 64.257812 239.671875 C 64.257812 230.835938 71.421875 223.671875 80.257812 223.671875 C 89.09375 223.671875 96.257812 230.835938 96.257812 239.671875 Z M 96.257812 239.671875 " transform="matrix(1, 0, 0, -1, -63, 833)"/>
<g clip-path="url(#clip-68)">
<g fill="rgb(0%, 0%, 0%)" fill-opacity="1">
<use xlink:href="#glyph-7-0" x="11.568077" y="809.3225"/>
</g>
</g>
<g clip-path="url(#clip-69)">
<g fill="rgb(0%, 0%, 0%)" fill-opacity="1">
<use xlink:href="#glyph-7-0" x="59.5681" y="809.3225"/>
</g>
</g>
<g clip-path="url(#clip-70)">
<g fill="rgb(0%, 0%, 0%)" fill-opacity="1">
<use xlink:href="#glyph-7-0" x="107.5681" y="769.3225"/>
</g>
</g>
<g clip-path="url(#clip-71)">
<g fill="rgb(0%, 0%, 0%)" fill-opacity="1">
<use xlink:href="#glyph-7-0" x="155.568" y="769.3225"/>
</g>
</g>
<g clip-path="url(#clip-72)">
<g fill="rgb(0%, 0%, 0%)" fill-opacity="1">
<use xlink:href="#glyph-7-0" x="203.568" y="769.3225"/>
</g>
</g>
<g clip-path="url(#clip-73)">
<g fill="rgb(0%, 0%, 0%)" fill-opacity="1">
<use xlink:href="#glyph-7-0" x="251.568" y="809.3225"/>
</g>
</g>
<g clip-path="url(#clip-74)">
<g fill="rgb(0%, 0%, 0%)" fill-opacity="1">
<use xlink:href="#glyph-7-0" x="299.568" y="809.3225"/>
</g>
</g>
<g clip-path="url(#clip-75)">
<g fill="rgb(0%, 0%, 0%)" fill-opacity="1">
<use xlink:href="#glyph-7-0" x="347.568" y="769.3225"/>
</g>
</g>
<g clip-path="url(#clip-76)">
<g fill="rgb(100%, 54.9%, 0%)" fill-opacity="1">
<use xlink:href="#glyph-9-0" x="394.2795" y="769.459"/>
</g>
</g>
<g clip-path="url(#clip-77)">
<g fill="rgb(0%, 0%, 0%)" fill-opacity="1">
<use xlink:href="#glyph-7-0" x="443.568" y="769.3225"/>
</g>
</g>
<g clip-path="url(#clip-78)">
<g fill="rgb(0%, 0%, 0%)" fill-opacity="1">
<use xlink:href="#glyph-7-0" x="35.5681" y="769.3225"/>
</g>
</g>
<g clip-path="url(#clip-79)">
<g fill="rgb(0%, 0%, 0%)" fill-opacity="1">
<use xlink:href="#glyph-7-0" x="59.5681" y="729.3225"/>
</g>
</g>
<g clip-path="url(#clip-80)">
<g fill="rgb(100%, 54.9%, 0%)" fill-opacity="1">
<use xlink:href="#glyph-9-0" x="178.2795" y="729.459"/>
</g>
</g>
<g clip-path="url(#clip-81)">
<g fill="rgb(100%, 54.9%, 0%)" fill-opacity="1">
<use xlink:href="#glyph-9-0" x="298.2795" y="729.459"/>
</g>
</g>
<g clip-path="url(#clip-82)">
<g fill="rgb(0%, 0%, 0%)" fill-opacity="1">
<use xlink:href="#glyph-7-0" x="419.568" y="729.3225"/>
</g>
</g>
<g clip-path="url(#clip-83)">
<g fill="rgb(0%, 0%, 0%)" fill-opacity="1">
<use xlink:href="#glyph-5-0" x="107.5681" y="689.521"/>
</g>
</g>
<g clip-path="url(#clip-84)">
<g fill="rgb(0%, 0%, 0%)" fill-opacity="1">
<use xlink:href="#glyph-7-0" x="347.568" y="689.3225"/>
</g>
</g>
<g clip-path="url(#clip-85)">
<g fill="rgb(0%, 0%, 0%)" fill-opacity="1">
<use xlink:href="#glyph-7-0" x="227.568" y="649.3225"/>
</g>
</g>
<g clip-path="url(#clip-86)">
<g fill="rgb(0%, 0%, 0%)" fill-opacity="1">
<use xlink:href="#glyph-5-0" x="275.5681" y="769.521"/>
</g>
</g>
</svg>
