<?xml version="1.0" encoding="UTF-8"?>
<svg xmlns="http://www.w3.org/2000/svg" xmlns:xlink="http://www.w3.org/1999/xlink" width="51" height="59" viewBox="0 0 51 59">
<defs>
<g>
<g id="glyph-0-0">
<path d="M 5.078125 -4.03125 C 5.0625 -4.0625 5.03125 -4.140625 5.03125 -4.171875 C 5.03125 -4.171875 5.203125 -4.3125 5.3125 -4.390625 L 7.0625 -5.734375 C 8 -6.4375 8.390625 -6.46875 8.6875 -6.5 C 8.765625 -6.515625 8.859375 -6.515625 8.859375 -6.703125 C 8.859375 -6.734375 8.828125 -6.8125 8.75 -6.8125 C 8.53125 -6.8125 8.28125 -6.78125 8.046875 -6.78125 C 7.6875 -6.78125 7.296875 -6.8125 6.9375 -6.8125 C 6.875 -6.8125 6.75 -6.8125 6.75 -6.609375 C 6.75 -6.546875 6.796875 -6.515625 6.875 -6.5 C 7.09375 -6.484375 7.171875 -6.4375 7.171875 -6.296875 C 7.171875 -6.109375 6.875 -5.875 6.8125 -5.828125 L 2.9375 -2.84375 L 3.734375 -6.046875 C 3.8125 -6.40625 3.84375 -6.5 4.5625 -6.5 C 4.8125 -6.5 4.90625 -6.5 4.90625 -6.703125 C 4.90625 -6.78125 4.828125 -6.8125 4.765625 -6.8125 C 4.484375 -6.8125 3.765625 -6.78125 3.484375 -6.78125 C 3.203125 -6.78125 2.5 -6.8125 2.203125 -6.8125 C 2.140625 -6.8125 2 -6.8125 2 -6.625 C 2 -6.5 2.09375 -6.5 2.296875 -6.5 C 2.421875 -6.5 2.609375 -6.484375 2.71875 -6.484375 C 2.875 -6.453125 2.9375 -6.4375 2.9375 -6.3125 C 2.9375 -6.28125 2.9375 -6.25 2.90625 -6.125 L 1.5625 -0.78125 C 1.46875 -0.390625 1.453125 -0.3125 0.65625 -0.3125 C 0.484375 -0.3125 0.375 -0.3125 0.375 -0.125 C 0.375 0 0.5 0 0.53125 0 C 0.8125 0 1.515625 -0.03125 1.796875 -0.03125 C 2 -0.03125 2.21875 -0.015625 2.4375 -0.015625 C 2.65625 -0.015625 2.875 0 3.078125 0 C 3.15625 0 3.28125 0 3.28125 -0.203125 C 3.28125 -0.3125 3.1875 -0.3125 3 -0.3125 C 2.625 -0.3125 2.359375 -0.3125 2.359375 -0.484375 C 2.359375 -0.5625 2.40625 -0.78125 2.4375 -0.921875 C 2.578125 -1.453125 2.71875 -1.96875 2.84375 -2.5 L 4.328125 -3.65625 L 5.484375 -0.96875 C 5.609375 -0.703125 5.609375 -0.671875 5.609375 -0.625 C 5.609375 -0.3125 5.171875 -0.3125 5.078125 -0.3125 C 4.96875 -0.3125 4.859375 -0.3125 4.859375 -0.109375 C 4.859375 0 4.984375 0 5 0 C 5.40625 0 5.828125 -0.03125 6.21875 -0.03125 C 6.4375 -0.03125 6.984375 0 7.203125 0 C 7.25 0 7.375 0 7.375 -0.203125 C 7.375 -0.3125 7.265625 -0.3125 7.171875 -0.3125 C 6.765625 -0.3125 6.640625 -0.40625 6.484375 -0.75 Z M 5.078125 -4.03125 "/>
</g>
<g id="glyph-1-0">
<path d="M 2.328125 -4.4375 C 2.328125 -4.625 2.328125 -4.625 2.125 -4.625 C 1.671875 -4.1875 1.046875 -4.1875 0.765625 -4.1875 L 0.765625 -3.9375 C 0.921875 -3.9375 1.390625 -3.9375 1.765625 -4.125 L 1.765625 -0.578125 C 1.765625 -0.34375 1.765625 -0.25 1.078125 -0.25 L 0.8125 -0.25 L 0.8125 0 C 0.9375 0 1.796875 -0.03125 2.046875 -0.03125 C 2.265625 -0.03125 3.140625 0 3.296875 0 L 3.296875 -0.25 L 3.03125 -0.25 C 2.328125 -0.25 2.328125 -0.34375 2.328125 -0.578125 Z M 2.328125 -4.4375 "/>
</g>
<g id="glyph-2-0">
<path d="M 1.46875 -0.109375 C 1.46875 0.265625 1.40625 0.71875 0.921875 1.15625 C 0.90625 1.1875 0.875 1.21875 0.875 1.25 C 0.875 1.296875 0.9375 1.34375 0.96875 1.34375 C 1.078125 1.34375 1.671875 0.78125 1.671875 -0.046875 C 1.671875 -0.46875 1.5 -0.796875 1.171875 -0.796875 C 0.953125 -0.796875 0.78125 -0.625 0.78125 -0.40625 C 0.78125 -0.1875 0.9375 0 1.1875 0 C 1.359375 0 1.46875 -0.109375 1.46875 -0.109375 Z M 1.46875 -0.109375 "/>
</g>
<g id="glyph-3-0">
<path d="M 3.734375 -4.203125 C 3.796875 -4.296875 3.796875 -4.3125 3.796875 -4.484375 L 1.96875 -4.484375 C 1.6875 -4.484375 1.609375 -4.5 1.359375 -4.515625 C 1 -4.546875 0.984375 -4.59375 0.96875 -4.703125 L 0.734375 -4.703125 L 0.484375 -3.21875 L 0.71875 -3.21875 C 0.734375 -3.328125 0.8125 -3.78125 0.921875 -3.859375 C 0.96875 -3.890625 1.546875 -3.890625 1.640625 -3.890625 L 3.15625 -3.890625 C 2.9375 -3.609375 2.578125 -3.171875 2.4375 -2.96875 C 1.53125 -1.78125 1.4375 -0.671875 1.4375 -0.265625 C 1.4375 -0.1875 1.4375 0.140625 1.765625 0.140625 C 2.109375 0.140625 2.109375 -0.171875 2.109375 -0.265625 L 2.109375 -0.546875 C 2.109375 -1.890625 2.390625 -2.515625 2.6875 -2.890625 Z M 3.734375 -4.203125 "/>
</g>
</g>
</defs>
<path fill-rule="evenodd" fill="rgb(0%, 0%, 0%)" fill-opacity="1" d="M 27.800781 26 C 27.800781 23.601562 24.199219 23.601562 24.199219 26 C 24.199219 28.398438 27.800781 28.398438 27.800781 26 Z M 27.800781 26 "/>
<path fill-rule="evenodd" fill="rgb(0%, 0%, 0%)" fill-opacity="1" d="M 27.800781 26 C 27.800781 23.601562 24.199219 23.601562 24.199219 26 C 24.199219 28.398438 27.800781 28.398438 27.800781 26 Z M 27.800781 26 "/>
<path fill-rule="evenodd" fill="rgb(0%, 0%, 0%)" fill-opacity="1" d="M 27.800781 26 C 27.800781 23.601562 24.199219 23.601562 24.199219 26 C 24.199219 28.398438 27.800781 28.398438 27.800781 26 Z M 27.800781 26 "/>
<path fill-rule="evenodd" fill="rgb(0%, 0%, 0%)" fill-opacity="1" d="M 27.851562 3.371094 C 27.851562 0.972656 24.25 0.972656 24.25 3.371094 C 24.25 5.773438 27.851562 5.773438 27.851562 3.371094 Z M 27.851562 3.371094 "/>
<path fill-rule="evenodd" fill="rgb(0%, 0%, 0%)" fill-opacity="1" d="M 44.550781 11.300781 C 44.550781 8.902344 40.953125 8.902344 40.953125 11.300781 C 40.953125 13.703125 44.550781 13.703125 44.550781 11.300781 Z M 44.550781 11.300781 "/>
<path fill-rule="evenodd" fill="rgb(0%, 0%, 0%)" fill-opacity="1" d="M 50.0625 30.050781 C 50.0625 27.652344 46.460938 27.652344 46.460938 30.050781 C 46.460938 32.453125 50.0625 32.453125 50.0625 30.050781 Z M 50.0625 30.050781 "/>
<path fill-rule="evenodd" fill="rgb(0%, 0%, 0%)" fill-opacity="1" d="M 38.585938 45.890625 C 38.585938 43.492188 34.984375 43.492188 34.984375 45.890625 C 34.984375 48.292969 38.585938 48.292969 38.585938 45.890625 Z M 38.585938 45.890625 "/>
<path fill-rule="evenodd" fill="rgb(0%, 0%, 0%)" fill-opacity="1" d="M 15.007812 44.664062 C 15.007812 42.265625 11.410156 42.265625 11.410156 44.664062 C 11.410156 47.066406 15.007812 47.066406 15.007812 44.664062 Z M 15.007812 44.664062 "/>
<path fill-rule="evenodd" fill="rgb(0%, 0%, 0%)" fill-opacity="1" d="M 5.277344 23.8125 C 5.277344 21.414062 1.679688 21.414062 1.679688 23.8125 C 1.679688 26.214844 5.277344 26.214844 5.277344 23.8125 Z M 5.277344 23.8125 "/>
<path fill-rule="evenodd" fill="rgb(0%, 0%, 0%)" fill-opacity="1" d="M 13.542969 8.425781 C 13.542969 6.027344 9.945312 6.027344 9.945312 8.425781 C 9.945312 10.828125 13.542969 10.828125 13.542969 8.425781 Z M 13.542969 8.425781 "/>
<path fill="none" stroke-width="0.4" stroke-linecap="butt" stroke-linejoin="round" stroke="rgb(0%, 0%, 0%)" stroke-opacity="1" stroke-miterlimit="10" d="M 176 480 L 176.050781 502.628906 " transform="matrix(1, 0, 0, -1, -150, 506)"/>
<path fill="none" stroke-width="0.4" stroke-linecap="butt" stroke-linejoin="round" stroke="rgb(0%, 0%, 0%)" stroke-opacity="1" stroke-miterlimit="10" d="M 176 480 L 192.75 494.699219 " transform="matrix(1, 0, 0, -1, -150, 506)"/>
<path fill="none" stroke-width="0.4" stroke-linecap="butt" stroke-linejoin="round" stroke="rgb(0%, 0%, 0%)" stroke-opacity="1" stroke-miterlimit="10" d="M 176 480 L 198.261719 475.949219 " transform="matrix(1, 0, 0, -1, -150, 506)"/>
<path fill="none" stroke-width="0.4" stroke-linecap="butt" stroke-linejoin="round" stroke="rgb(0%, 0%, 0%)" stroke-opacity="1" stroke-miterlimit="10" d="M 176 480 L 186.785156 460.109375 " transform="matrix(1, 0, 0, -1, -150, 506)"/>
<path fill="none" stroke-width="0.4" stroke-linecap="butt" stroke-linejoin="round" stroke="rgb(0%, 0%, 0%)" stroke-opacity="1" stroke-miterlimit="10" d="M 176 480 L 163.207031 461.335938 " transform="matrix(1, 0, 0, -1, -150, 506)"/>
<path fill="none" stroke-width="0.4" stroke-linecap="butt" stroke-linejoin="round" stroke="rgb(0%, 0%, 0%)" stroke-opacity="1" stroke-miterlimit="10" d="M 176 480 L 153.476562 482.1875 " transform="matrix(1, 0, 0, -1, -150, 506)"/>
<path fill="none" stroke-width="0.4" stroke-linecap="butt" stroke-linejoin="round" stroke="rgb(0%, 0%, 0%)" stroke-opacity="1" stroke-miterlimit="10" d="M 176 480 L 161.746094 497.574219 " transform="matrix(1, 0, 0, -1, -150, 506)"/>
<g fill="rgb(0%, 0%, 0%)" fill-opacity="1">
<use xlink:href="#glyph-0-0" x="15.904305" y="55.106744"/>
</g>
<g fill="rgb(0%, 0%, 0%)" fill-opacity="1">
<use xlink:href="#glyph-1-0" x="24.365305" y="56.600744"/>
</g>
<g fill="rgb(0%, 0%, 0%)" fill-opacity="1">
<use xlink:href="#glyph-2-0" x="28.337305" y="56.600744"/>
</g>
<g fill="rgb(0%, 0%, 0%)" fill-opacity="1">
<use xlink:href="#glyph-3-0" x="30.703305" y="56.600744"/>
</g>
</svg>
