<?xml version="1.0" encoding="UTF-8"?>
<svg xmlns="http://www.w3.org/2000/svg" xmlns:xlink="http://www.w3.org/1999/xlink" width="514" height="78" viewBox="0 0 514 78">
<defs>
<g>
<g id="glyph-0-0">
<path d="M 5.859375 -13.875 L 5.46875 -13.875 C 4.359375 -12.71875 3.0625 -12.5625 1.734375 -12.515625 L 1.734375 -11.3125 C 2.328125 -11.34375 3.3125 -11.375 4.28125 -11.8125 L 4.28125 -1.203125 L 1.84375 -1.203125 L 1.84375 0 L 8.296875 0 L 8.296875 -1.203125 L 5.859375 -1.203125 Z M 5.859375 -13.875 "/>
</g>
<g id="glyph-0-1">
<path d="M 8.90625 -6.75 C 8.90625 -7.9375 8.875 -10.125 8.03125 -11.8125 C 7.1875 -13.453125 5.828125 -13.875 4.859375 -13.875 C 3.453125 -13.875 2.25 -13.0625 1.625 -11.734375 C 0.96875 -10.34375 0.78125 -8.921875 0.78125 -6.75 C 0.78125 -5.265625 0.84375 -3.453125 1.59375 -1.859375 C 2.4375 -0.109375 3.859375 0.328125 4.828125 0.328125 C 6.109375 0.328125 7.359375 -0.34375 8.0625 -1.78125 C 8.78125 -3.265625 8.90625 -4.890625 8.90625 -6.75 Z M 4.828125 -0.921875 C 3.265625 -0.921875 2.78125 -2.734375 2.640625 -3.328125 C 2.390625 -4.359375 2.359375 -5.34375 2.359375 -6.984375 C 2.359375 -8.265625 2.359375 -9.703125 2.75 -10.84375 C 3.21875 -12.171875 4.046875 -12.625 4.828125 -12.625 C 6.359375 -12.625 6.859375 -11.09375 7.015625 -10.5625 C 7.328125 -9.453125 7.328125 -8.1875 7.328125 -6.984375 C 7.328125 -5.0625 7.328125 -0.921875 4.828125 -0.921875 Z M 4.828125 -0.921875 "/>
</g>
<g id="glyph-1-0">
<path d="M 4.578125 -3.1875 C 4.578125 -3.984375 4.53125 -4.78125 4.1875 -5.515625 C 3.734375 -6.484375 2.90625 -6.640625 2.5 -6.640625 C 1.890625 -6.640625 1.171875 -6.375 0.75 -5.453125 C 0.4375 -4.765625 0.390625 -3.984375 0.390625 -3.1875 C 0.390625 -2.4375 0.421875 -1.546875 0.84375 -0.78125 C 1.265625 0.015625 2 0.21875 2.484375 0.21875 C 3.015625 0.21875 3.78125 0.015625 4.21875 -0.9375 C 4.53125 -1.625 4.578125 -2.40625 4.578125 -3.1875 Z M 2.484375 0 C 2.09375 0 1.5 -0.25 1.328125 -1.203125 C 1.21875 -1.796875 1.21875 -2.71875 1.21875 -3.3125 C 1.21875 -3.953125 1.21875 -4.609375 1.296875 -5.140625 C 1.484375 -6.328125 2.234375 -6.421875 2.484375 -6.421875 C 2.8125 -6.421875 3.46875 -6.234375 3.65625 -5.25 C 3.765625 -4.6875 3.765625 -3.9375 3.765625 -3.3125 C 3.765625 -2.5625 3.765625 -1.890625 3.65625 -1.25 C 3.5 -0.296875 2.9375 0 2.484375 0 Z M 2.484375 0 "/>
</g>
<g id="glyph-1-1">
<path d="M 1.625 -4.5625 C 1.171875 -4.859375 1.125 -5.1875 1.125 -5.359375 C 1.125 -5.96875 1.78125 -6.390625 2.484375 -6.390625 C 3.203125 -6.390625 3.84375 -5.875 3.84375 -5.15625 C 3.84375 -4.578125 3.453125 -4.109375 2.859375 -3.765625 Z M 3.078125 -3.609375 C 3.796875 -3.984375 4.28125 -4.5 4.28125 -5.15625 C 4.28125 -6.078125 3.40625 -6.640625 2.5 -6.640625 C 1.5 -6.640625 0.6875 -5.90625 0.6875 -4.96875 C 0.6875 -4.796875 0.703125 -4.34375 1.125 -3.875 C 1.234375 -3.765625 1.609375 -3.515625 1.859375 -3.34375 C 1.28125 -3.046875 0.421875 -2.5 0.421875 -1.5 C 0.421875 -0.453125 1.4375 0.21875 2.484375 0.21875 C 3.609375 0.21875 4.5625 -0.609375 4.5625 -1.671875 C 4.5625 -2.03125 4.453125 -2.484375 4.0625 -2.90625 C 3.875 -3.109375 3.71875 -3.203125 3.078125 -3.609375 Z M 2.078125 -3.1875 L 3.3125 -2.40625 C 3.59375 -2.21875 4.0625 -1.921875 4.0625 -1.3125 C 4.0625 -0.578125 3.3125 -0.0625 2.5 -0.0625 C 1.640625 -0.0625 0.921875 -0.671875 0.921875 -1.5 C 0.921875 -2.078125 1.234375 -2.71875 2.078125 -3.1875 Z M 2.078125 -3.1875 "/>
</g>
<g id="glyph-1-2">
<path d="M 2.9375 -6.375 C 2.9375 -6.625 2.9375 -6.640625 2.703125 -6.640625 C 2.078125 -6 1.203125 -6 0.890625 -6 L 0.890625 -5.6875 C 1.09375 -5.6875 1.671875 -5.6875 2.1875 -5.953125 L 2.1875 -0.78125 C 2.1875 -0.421875 2.15625 -0.3125 1.265625 -0.3125 L 0.953125 -0.3125 L 0.953125 0 C 1.296875 -0.03125 2.15625 -0.03125 2.5625 -0.03125 C 2.953125 -0.03125 3.828125 -0.03125 4.171875 0 L 4.171875 -0.3125 L 3.859375 -0.3125 C 2.953125 -0.3125 2.9375 -0.421875 2.9375 -0.78125 Z M 2.9375 -6.375 "/>
</g>
<g id="glyph-1-3">
<path d="M 1.3125 -3.265625 L 1.3125 -3.515625 C 1.3125 -6.03125 2.546875 -6.390625 3.0625 -6.390625 C 3.296875 -6.390625 3.71875 -6.328125 3.9375 -5.984375 C 3.78125 -5.984375 3.390625 -5.984375 3.390625 -5.546875 C 3.390625 -5.234375 3.625 -5.078125 3.84375 -5.078125 C 4 -5.078125 4.3125 -5.171875 4.3125 -5.5625 C 4.3125 -6.15625 3.875 -6.640625 3.046875 -6.640625 C 1.765625 -6.640625 0.421875 -5.359375 0.421875 -3.15625 C 0.421875 -0.484375 1.578125 0.21875 2.5 0.21875 C 3.609375 0.21875 4.5625 -0.71875 4.5625 -2.03125 C 4.5625 -3.296875 3.671875 -4.25 2.5625 -4.25 C 1.890625 -4.25 1.515625 -3.75 1.3125 -3.265625 Z M 2.5 -0.0625 C 1.875 -0.0625 1.578125 -0.65625 1.515625 -0.8125 C 1.328125 -1.28125 1.328125 -2.078125 1.328125 -2.25 C 1.328125 -3.03125 1.65625 -4.03125 2.546875 -4.03125 C 2.71875 -4.03125 3.171875 -4.03125 3.484375 -3.40625 C 3.65625 -3.046875 3.65625 -2.53125 3.65625 -2.046875 C 3.65625 -1.5625 3.65625 -1.0625 3.484375 -0.703125 C 3.1875 -0.109375 2.734375 -0.0625 2.5 -0.0625 Z M 2.5 -0.0625 "/>
</g>
<g id="glyph-1-4">
<path d="M 1.265625 -0.765625 L 2.328125 -1.796875 C 3.875 -3.171875 4.46875 -3.703125 4.46875 -4.703125 C 4.46875 -5.84375 3.578125 -6.640625 2.359375 -6.640625 C 1.234375 -6.640625 0.5 -5.71875 0.5 -4.828125 C 0.5 -4.28125 1 -4.28125 1.03125 -4.28125 C 1.203125 -4.28125 1.546875 -4.390625 1.546875 -4.8125 C 1.546875 -5.0625 1.359375 -5.328125 1.015625 -5.328125 C 0.9375 -5.328125 0.921875 -5.328125 0.890625 -5.3125 C 1.109375 -5.96875 1.65625 -6.328125 2.234375 -6.328125 C 3.140625 -6.328125 3.5625 -5.515625 3.5625 -4.703125 C 3.5625 -3.90625 3.078125 -3.125 2.515625 -2.5 L 0.609375 -0.375 C 0.5 -0.265625 0.5 -0.234375 0.5 0 L 4.203125 0 L 4.46875 -1.734375 L 4.234375 -1.734375 C 4.171875 -1.4375 4.109375 -1 4 -0.84375 C 3.9375 -0.765625 3.28125 -0.765625 3.0625 -0.765625 Z M 1.265625 -0.765625 "/>
</g>
<g id="glyph-1-5">
<path d="M 2.9375 -1.640625 L 2.9375 -0.78125 C 2.9375 -0.421875 2.90625 -0.3125 2.171875 -0.3125 L 1.96875 -0.3125 L 1.96875 0 C 2.375 -0.03125 2.890625 -0.03125 3.3125 -0.03125 C 3.734375 -0.03125 4.25 -0.03125 4.671875 0 L 4.671875 -0.3125 L 4.453125 -0.3125 C 3.71875 -0.3125 3.703125 -0.421875 3.703125 -0.78125 L 3.703125 -1.640625 L 4.6875 -1.640625 L 4.6875 -1.953125 L 3.703125 -1.953125 L 3.703125 -6.484375 C 3.703125 -6.6875 3.703125 -6.75 3.53125 -6.75 C 3.453125 -6.75 3.421875 -6.75 3.34375 -6.625 L 0.28125 -1.953125 L 0.28125 -1.640625 Z M 2.984375 -1.953125 L 0.5625 -1.953125 L 2.984375 -5.671875 Z M 2.984375 -1.953125 "/>
</g>
<g id="glyph-1-6">
<path d="M 2.890625 -3.515625 C 3.703125 -3.78125 4.28125 -4.46875 4.28125 -5.265625 C 4.28125 -6.078125 3.40625 -6.640625 2.453125 -6.640625 C 1.453125 -6.640625 0.6875 -6.046875 0.6875 -5.28125 C 0.6875 -4.953125 0.90625 -4.765625 1.203125 -4.765625 C 1.5 -4.765625 1.703125 -4.984375 1.703125 -5.28125 C 1.703125 -5.765625 1.234375 -5.765625 1.09375 -5.765625 C 1.390625 -6.265625 2.046875 -6.390625 2.40625 -6.390625 C 2.828125 -6.390625 3.375 -6.171875 3.375 -5.28125 C 3.375 -5.15625 3.34375 -4.578125 3.09375 -4.140625 C 2.796875 -3.65625 2.453125 -3.625 2.203125 -3.625 C 2.125 -3.609375 1.890625 -3.59375 1.8125 -3.59375 C 1.734375 -3.578125 1.671875 -3.5625 1.671875 -3.46875 C 1.671875 -3.359375 1.734375 -3.359375 1.90625 -3.359375 L 2.34375 -3.359375 C 3.15625 -3.359375 3.53125 -2.6875 3.53125 -1.703125 C 3.53125 -0.34375 2.84375 -0.0625 2.40625 -0.0625 C 1.96875 -0.0625 1.21875 -0.234375 0.875 -0.8125 C 1.21875 -0.765625 1.53125 -0.984375 1.53125 -1.359375 C 1.53125 -1.71875 1.265625 -1.921875 0.984375 -1.921875 C 0.734375 -1.921875 0.421875 -1.78125 0.421875 -1.34375 C 0.421875 -0.4375 1.34375 0.21875 2.4375 0.21875 C 3.65625 0.21875 4.5625 -0.6875 4.5625 -1.703125 C 4.5625 -2.515625 3.921875 -3.296875 2.890625 -3.515625 Z M 2.890625 -3.515625 "/>
</g>
</g>
<clipPath id="clip-0">
<path clip-rule="nonzero" d="M 5 62.226562 L 13 62.226562 L 13 75.777344 L 5 75.777344 Z M 5 62.226562 "/>
</clipPath>
<clipPath id="clip-1">
<path clip-rule="nonzero" d="M 21 62.226562 L 29 62.226562 L 29 75.777344 L 21 75.777344 Z M 21 62.226562 "/>
</clipPath>
<clipPath id="clip-2">
<path clip-rule="nonzero" d="M 37 62.226562 L 45 62.226562 L 45 75.777344 L 37 75.777344 Z M 37 62.226562 "/>
</clipPath>
<clipPath id="clip-3">
<path clip-rule="nonzero" d="M 53 62.226562 L 61 62.226562 L 61 75.777344 L 53 75.777344 Z M 53 62.226562 "/>
</clipPath>
<clipPath id="clip-4">
<path clip-rule="nonzero" d="M 500.140625 62.226562 L 509.855469 62.226562 L 509.855469 75.777344 L 500.140625 75.777344 Z M 500.140625 62.226562 "/>
</clipPath>
<clipPath id="clip-5">
<path clip-rule="nonzero" d="M 484.140625 62.226562 L 493.855469 62.226562 L 493.855469 75.777344 L 484.140625 75.777344 Z M 484.140625 62.226562 "/>
</clipPath>
<clipPath id="clip-6">
<path clip-rule="nonzero" d="M 502.507812 49.789062 L 507.488281 49.789062 L 507.488281 56.210938 L 502.507812 56.210938 Z M 502.507812 49.789062 "/>
</clipPath>
<clipPath id="clip-7">
<path clip-rule="nonzero" d="M 69 62.226562 L 77 62.226562 L 77 75.777344 L 69 75.777344 Z M 69 62.226562 "/>
</clipPath>
<clipPath id="clip-8">
<path clip-rule="nonzero" d="M 85 62.226562 L 93 62.226562 L 93 75.777344 L 85 75.777344 Z M 85 62.226562 "/>
</clipPath>
<clipPath id="clip-9">
<path clip-rule="nonzero" d="M 101 62.226562 L 109 62.226562 L 109 75.777344 L 101 75.777344 Z M 101 62.226562 "/>
</clipPath>
<clipPath id="clip-10">
<path clip-rule="nonzero" d="M 117 62.226562 L 125 62.226562 L 125 75.777344 L 117 75.777344 Z M 117 62.226562 "/>
</clipPath>
<clipPath id="clip-11">
<path clip-rule="nonzero" d="M 133 62.226562 L 141 62.226562 L 141 75.777344 L 133 75.777344 Z M 133 62.226562 "/>
</clipPath>
<clipPath id="clip-12">
<path clip-rule="nonzero" d="M 149 62.226562 L 157 62.226562 L 157 75.777344 L 149 75.777344 Z M 149 62.226562 "/>
</clipPath>
<clipPath id="clip-13">
<path clip-rule="nonzero" d="M 165 62.226562 L 173 62.226562 L 173 75.777344 L 165 75.777344 Z M 165 62.226562 "/>
</clipPath>
<clipPath id="clip-14">
<path clip-rule="nonzero" d="M 181 62.226562 L 189 62.226562 L 189 75.777344 L 181 75.777344 Z M 181 62.226562 "/>
</clipPath>
<clipPath id="clip-15">
<path clip-rule="nonzero" d="M 197 62.226562 L 205 62.226562 L 205 75.777344 L 197 75.777344 Z M 197 62.226562 "/>
</clipPath>
<clipPath id="clip-16">
<path clip-rule="nonzero" d="M 213 62.226562 L 221 62.226562 L 221 75.777344 L 213 75.777344 Z M 213 62.226562 "/>
</clipPath>
<clipPath id="clip-17">
<path clip-rule="nonzero" d="M 229 62.226562 L 237 62.226562 L 237 75.777344 L 229 75.777344 Z M 229 62.226562 "/>
</clipPath>
<clipPath id="clip-18">
<path clip-rule="nonzero" d="M 245 62.226562 L 253 62.226562 L 253 75.777344 L 245 75.777344 Z M 245 62.226562 "/>
</clipPath>
<clipPath id="clip-19">
<path clip-rule="nonzero" d="M 261 62.226562 L 269 62.226562 L 269 75.777344 L 261 75.777344 Z M 261 62.226562 "/>
</clipPath>
<clipPath id="clip-20">
<path clip-rule="nonzero" d="M 277 62.226562 L 285 62.226562 L 285 75.777344 L 277 75.777344 Z M 277 62.226562 "/>
</clipPath>
<clipPath id="clip-21">
<path clip-rule="nonzero" d="M 293 62.226562 L 301 62.226562 L 301 75.777344 L 293 75.777344 Z M 293 62.226562 "/>
</clipPath>
<clipPath id="clip-22">
<path clip-rule="nonzero" d="M 309 62.226562 L 317 62.226562 L 317 75.777344 L 309 75.777344 Z M 309 62.226562 "/>
</clipPath>
<clipPath id="clip-23">
<path clip-rule="nonzero" d="M 325 62.226562 L 333 62.226562 L 333 75.777344 L 325 75.777344 Z M 325 62.226562 "/>
</clipPath>
<clipPath id="clip-24">
<path clip-rule="nonzero" d="M 341 62.226562 L 349 62.226562 L 349 75.777344 L 341 75.777344 Z M 341 62.226562 "/>
</clipPath>
<clipPath id="clip-25">
<path clip-rule="nonzero" d="M 357 62.226562 L 365 62.226562 L 365 75.777344 L 357 75.777344 Z M 357 62.226562 "/>
</clipPath>
<clipPath id="clip-26">
<path clip-rule="nonzero" d="M 373 62.226562 L 381 62.226562 L 381 75.777344 L 373 75.777344 Z M 373 62.226562 "/>
</clipPath>
<clipPath id="clip-27">
<path clip-rule="nonzero" d="M 389 62.226562 L 397 62.226562 L 397 75.777344 L 389 75.777344 Z M 389 62.226562 "/>
</clipPath>
<clipPath id="clip-28">
<path clip-rule="nonzero" d="M 420.140625 62.226562 L 429.855469 62.226562 L 429.855469 75.777344 L 420.140625 75.777344 Z M 420.140625 62.226562 "/>
</clipPath>
<clipPath id="clip-29">
<path clip-rule="nonzero" d="M 404.140625 62.226562 L 413.855469 62.226562 L 413.855469 75.777344 L 404.140625 75.777344 Z M 404.140625 62.226562 "/>
</clipPath>
<clipPath id="clip-30">
<path clip-rule="nonzero" d="M 437 62.226562 L 445 62.226562 L 445 75.777344 L 437 75.777344 Z M 437 62.226562 "/>
</clipPath>
<clipPath id="clip-31">
<path clip-rule="nonzero" d="M 453 62.226562 L 461 62.226562 L 461 75.777344 L 453 75.777344 Z M 453 62.226562 "/>
</clipPath>
<clipPath id="clip-32">
<path clip-rule="nonzero" d="M 469 62.226562 L 477 62.226562 L 477 75.777344 L 469 75.777344 Z M 469 62.226562 "/>
</clipPath>
<clipPath id="clip-33">
<path clip-rule="nonzero" d="M 374.507812 49.789062 L 379.488281 49.789062 L 379.488281 56.210938 L 374.507812 56.210938 Z M 374.507812 49.789062 "/>
</clipPath>
<clipPath id="clip-34">
<path clip-rule="nonzero" d="M 244.019531 49.789062 L 253.984375 49.789062 L 253.984375 56.210938 L 244.019531 56.210938 Z M 244.019531 49.789062 "/>
</clipPath>
<clipPath id="clip-35">
<path clip-rule="nonzero" d="M 116.019531 49.789062 L 125.984375 49.789062 L 125.984375 56.210938 L 116.019531 56.210938 Z M 116.019531 49.789062 "/>
</clipPath>
<clipPath id="clip-36">
<path clip-rule="nonzero" d="M 4.019531 49.789062 L 13.984375 49.789062 L 13.984375 56.210938 L 4.019531 56.210938 Z M 4.019531 49.789062 "/>
</clipPath>
<clipPath id="clip-37">
<path clip-rule="nonzero" d="M 4.140625 14.226562 L 13.855469 14.226562 L 13.855469 27.777344 L 4.140625 27.777344 Z M 4.140625 14.226562 "/>
</clipPath>
<clipPath id="clip-38">
<path clip-rule="nonzero" d="M 500.140625 14.226562 L 509.855469 14.226562 L 509.855469 27.777344 L 500.140625 27.777344 Z M 500.140625 14.226562 "/>
</clipPath>
<clipPath id="clip-39">
<path clip-rule="nonzero" d="M 484.140625 14.226562 L 493.855469 14.226562 L 493.855469 27.777344 L 484.140625 27.777344 Z M 484.140625 14.226562 "/>
</clipPath>
<clipPath id="clip-40">
<path clip-rule="nonzero" d="M 502.507812 1.789062 L 507.488281 1.789062 L 507.488281 8.210938 L 502.507812 8.210938 Z M 502.507812 1.789062 "/>
</clipPath>
<clipPath id="clip-41">
<path clip-rule="nonzero" d="M 421 14.226562 L 429 14.226562 L 429 27.777344 L 421 27.777344 Z M 421 14.226562 "/>
</clipPath>
<clipPath id="clip-42">
<path clip-rule="nonzero" d="M 405 14.226562 L 413 14.226562 L 413 27.777344 L 405 27.777344 Z M 405 14.226562 "/>
</clipPath>
<clipPath id="clip-43">
<path clip-rule="nonzero" d="M 436.140625 14.226562 L 445.855469 14.226562 L 445.855469 27.777344 L 436.140625 27.777344 Z M 436.140625 14.226562 "/>
</clipPath>
<clipPath id="clip-44">
<path clip-rule="nonzero" d="M 374.507812 1.789062 L 379.488281 1.789062 L 379.488281 8.210938 L 374.507812 8.210938 Z M 374.507812 1.789062 "/>
</clipPath>
<clipPath id="clip-45">
<path clip-rule="nonzero" d="M 244.019531 1.789062 L 253.984375 1.789062 L 253.984375 8.210938 L 244.019531 8.210938 Z M 244.019531 1.789062 "/>
</clipPath>
<clipPath id="clip-46">
<path clip-rule="nonzero" d="M 116.019531 1.789062 L 125.984375 1.789062 L 125.984375 8.210938 L 116.019531 8.210938 Z M 116.019531 1.789062 "/>
</clipPath>
<clipPath id="clip-47">
<path clip-rule="nonzero" d="M 4.019531 1.789062 L 13.984375 1.789062 L 13.984375 8.210938 L 4.019531 8.210938 Z M 4.019531 1.789062 "/>
</clipPath>
<clipPath id="clip-48">
<path clip-rule="nonzero" d="M 20.140625 14.226562 L 29.855469 14.226562 L 29.855469 27.777344 L 20.140625 27.777344 Z M 20.140625 14.226562 "/>
</clipPath>
<clipPath id="clip-49">
<path clip-rule="nonzero" d="M 36.140625 14.226562 L 45.855469 14.226562 L 45.855469 27.777344 L 36.140625 27.777344 Z M 36.140625 14.226562 "/>
</clipPath>
<clipPath id="clip-50">
<path clip-rule="nonzero" d="M 52.140625 14.226562 L 61.855469 14.226562 L 61.855469 27.777344 L 52.140625 27.777344 Z M 52.140625 14.226562 "/>
</clipPath>
<clipPath id="clip-51">
<path clip-rule="nonzero" d="M 68.140625 14.226562 L 77.855469 14.226562 L 77.855469 27.777344 L 68.140625 27.777344 Z M 68.140625 14.226562 "/>
</clipPath>
<clipPath id="clip-52">
<path clip-rule="nonzero" d="M 84.140625 14.226562 L 93.855469 14.226562 L 93.855469 27.777344 L 84.140625 27.777344 Z M 84.140625 14.226562 "/>
</clipPath>
<clipPath id="clip-53">
<path clip-rule="nonzero" d="M 100.140625 14.226562 L 109.855469 14.226562 L 109.855469 27.777344 L 100.140625 27.777344 Z M 100.140625 14.226562 "/>
</clipPath>
<clipPath id="clip-54">
<path clip-rule="nonzero" d="M 116.140625 14.226562 L 125.855469 14.226562 L 125.855469 27.777344 L 116.140625 27.777344 Z M 116.140625 14.226562 "/>
</clipPath>
<clipPath id="clip-55">
<path clip-rule="nonzero" d="M 132.140625 14.226562 L 141.855469 14.226562 L 141.855469 27.777344 L 132.140625 27.777344 Z M 132.140625 14.226562 "/>
</clipPath>
<clipPath id="clip-56">
<path clip-rule="nonzero" d="M 148.140625 14.226562 L 157.855469 14.226562 L 157.855469 27.777344 L 148.140625 27.777344 Z M 148.140625 14.226562 "/>
</clipPath>
<clipPath id="clip-57">
<path clip-rule="nonzero" d="M 164.140625 14.226562 L 173.855469 14.226562 L 173.855469 27.777344 L 164.140625 27.777344 Z M 164.140625 14.226562 "/>
</clipPath>
<clipPath id="clip-58">
<path clip-rule="nonzero" d="M 180.140625 14.226562 L 189.855469 14.226562 L 189.855469 27.777344 L 180.140625 27.777344 Z M 180.140625 14.226562 "/>
</clipPath>
<clipPath id="clip-59">
<path clip-rule="nonzero" d="M 196.140625 14.226562 L 205.855469 14.226562 L 205.855469 27.777344 L 196.140625 27.777344 Z M 196.140625 14.226562 "/>
</clipPath>
<clipPath id="clip-60">
<path clip-rule="nonzero" d="M 212.140625 14.226562 L 221.855469 14.226562 L 221.855469 27.777344 L 212.140625 27.777344 Z M 212.140625 14.226562 "/>
</clipPath>
<clipPath id="clip-61">
<path clip-rule="nonzero" d="M 228.140625 14.226562 L 237.855469 14.226562 L 237.855469 27.777344 L 228.140625 27.777344 Z M 228.140625 14.226562 "/>
</clipPath>
<clipPath id="clip-62">
<path clip-rule="nonzero" d="M 244.140625 14.226562 L 253.855469 14.226562 L 253.855469 27.777344 L 244.140625 27.777344 Z M 244.140625 14.226562 "/>
</clipPath>
<clipPath id="clip-63">
<path clip-rule="nonzero" d="M 260.140625 14.226562 L 269.855469 14.226562 L 269.855469 27.777344 L 260.140625 27.777344 Z M 260.140625 14.226562 "/>
</clipPath>
<clipPath id="clip-64">
<path clip-rule="nonzero" d="M 276.140625 14.226562 L 285.855469 14.226562 L 285.855469 27.777344 L 276.140625 27.777344 Z M 276.140625 14.226562 "/>
</clipPath>
<clipPath id="clip-65">
<path clip-rule="nonzero" d="M 292.140625 14.226562 L 301.855469 14.226562 L 301.855469 27.777344 L 292.140625 27.777344 Z M 292.140625 14.226562 "/>
</clipPath>
<clipPath id="clip-66">
<path clip-rule="nonzero" d="M 308.140625 14.226562 L 317.855469 14.226562 L 317.855469 27.777344 L 308.140625 27.777344 Z M 308.140625 14.226562 "/>
</clipPath>
<clipPath id="clip-67">
<path clip-rule="nonzero" d="M 324.140625 14.226562 L 333.855469 14.226562 L 333.855469 27.777344 L 324.140625 27.777344 Z M 324.140625 14.226562 "/>
</clipPath>
<clipPath id="clip-68">
<path clip-rule="nonzero" d="M 340.140625 14.226562 L 349.855469 14.226562 L 349.855469 27.777344 L 340.140625 27.777344 Z M 340.140625 14.226562 "/>
</clipPath>
<clipPath id="clip-69">
<path clip-rule="nonzero" d="M 356.140625 14.226562 L 365.855469 14.226562 L 365.855469 27.777344 L 356.140625 27.777344 Z M 356.140625 14.226562 "/>
</clipPath>
<clipPath id="clip-70">
<path clip-rule="nonzero" d="M 372.140625 14.226562 L 381.855469 14.226562 L 381.855469 27.777344 L 372.140625 27.777344 Z M 372.140625 14.226562 "/>
</clipPath>
<clipPath id="clip-71">
<path clip-rule="nonzero" d="M 388.140625 14.226562 L 397.855469 14.226562 L 397.855469 27.777344 L 388.140625 27.777344 Z M 388.140625 14.226562 "/>
</clipPath>
<clipPath id="clip-72">
<path clip-rule="nonzero" d="M 452.140625 14.226562 L 461.855469 14.226562 L 461.855469 27.777344 L 452.140625 27.777344 Z M 452.140625 14.226562 "/>
</clipPath>
<clipPath id="clip-73">
<path clip-rule="nonzero" d="M 469 14.226562 L 477 14.226562 L 477 27.777344 L 469 27.777344 Z M 469 14.226562 "/>
</clipPath>
</defs>
<path fill="none" stroke-width="0.4" stroke-linecap="butt" stroke-linejoin="round" stroke="rgb(0%, 0%, 0%)" stroke-opacity="1" stroke-miterlimit="10" d="M 32 528 L 32 512 L 544 512 L 544 528 Z M 32 528 " transform="matrix(1, 0, 0, -1, -31, 589)"/>
<path fill="none" stroke-width="0.4" stroke-linecap="butt" stroke-linejoin="round" stroke="rgb(0%, 0%, 0%)" stroke-opacity="1" stroke-miterlimit="10" d="M 48 528 L 48 512 " transform="matrix(1, 0, 0, -1, -31, 589)"/>
<path fill="none" stroke-width="0.4" stroke-linecap="butt" stroke-linejoin="round" stroke="rgb(0%, 0%, 0%)" stroke-opacity="1" stroke-miterlimit="10" d="M 64 528 L 64 512 " transform="matrix(1, 0, 0, -1, -31, 589)"/>
<path fill="none" stroke-width="0.4" stroke-linecap="butt" stroke-linejoin="round" stroke="rgb(0%, 0%, 0%)" stroke-opacity="1" stroke-miterlimit="10" d="M 80 528 L 80 512 " transform="matrix(1, 0, 0, -1, -31, 589)"/>
<path fill="none" stroke-width="0.4" stroke-linecap="butt" stroke-linejoin="round" stroke="rgb(0%, 0%, 0%)" stroke-opacity="1" stroke-miterlimit="10" d="M 96 528 L 96 512 " transform="matrix(1, 0, 0, -1, -31, 589)"/>
<path fill="none" stroke-width="0.4" stroke-linecap="butt" stroke-linejoin="round" stroke="rgb(0%, 0%, 0%)" stroke-opacity="1" stroke-miterlimit="10" d="M 112 528 L 112 512 " transform="matrix(1, 0, 0, -1, -31, 589)"/>
<path fill="none" stroke-width="0.4" stroke-linecap="butt" stroke-linejoin="round" stroke="rgb(0%, 0%, 0%)" stroke-opacity="1" stroke-miterlimit="10" d="M 128 528 L 128 512 " transform="matrix(1, 0, 0, -1, -31, 589)"/>
<path fill="none" stroke-width="0.4" stroke-linecap="butt" stroke-linejoin="round" stroke="rgb(0%, 0%, 0%)" stroke-opacity="1" stroke-miterlimit="10" d="M 144 528 L 144 512 " transform="matrix(1, 0, 0, -1, -31, 589)"/>
<path fill="none" stroke-width="0.4" stroke-linecap="butt" stroke-linejoin="round" stroke="rgb(0%, 0%, 0%)" stroke-opacity="1" stroke-miterlimit="10" d="M 160 528 L 160 512 " transform="matrix(1, 0, 0, -1, -31, 589)"/>
<path fill="none" stroke-width="0.4" stroke-linecap="butt" stroke-linejoin="round" stroke="rgb(0%, 0%, 0%)" stroke-opacity="1" stroke-miterlimit="10" d="M 176 528 L 176 512 " transform="matrix(1, 0, 0, -1, -31, 589)"/>
<path fill="none" stroke-width="0.4" stroke-linecap="butt" stroke-linejoin="round" stroke="rgb(0%, 0%, 0%)" stroke-opacity="1" stroke-miterlimit="10" d="M 192 528 L 192 512 " transform="matrix(1, 0, 0, -1, -31, 589)"/>
<path fill="none" stroke-width="0.4" stroke-linecap="butt" stroke-linejoin="round" stroke="rgb(0%, 0%, 0%)" stroke-opacity="1" stroke-miterlimit="10" d="M 208 528 L 208 512 " transform="matrix(1, 0, 0, -1, -31, 589)"/>
<path fill="none" stroke-width="0.4" stroke-linecap="butt" stroke-linejoin="round" stroke="rgb(0%, 0%, 0%)" stroke-opacity="1" stroke-miterlimit="10" d="M 224 528 L 224 512 " transform="matrix(1, 0, 0, -1, -31, 589)"/>
<path fill="none" stroke-width="0.4" stroke-linecap="butt" stroke-linejoin="round" stroke="rgb(0%, 0%, 0%)" stroke-opacity="1" stroke-miterlimit="10" d="M 240 528 L 240 512 " transform="matrix(1, 0, 0, -1, -31, 589)"/>
<path fill="none" stroke-width="0.4" stroke-linecap="butt" stroke-linejoin="round" stroke="rgb(0%, 0%, 0%)" stroke-opacity="1" stroke-miterlimit="10" d="M 256 528 L 256 512 " transform="matrix(1, 0, 0, -1, -31, 589)"/>
<path fill="none" stroke-width="0.4" stroke-linecap="butt" stroke-linejoin="round" stroke="rgb(0%, 0%, 0%)" stroke-opacity="1" stroke-miterlimit="10" d="M 272 528 L 272 512 " transform="matrix(1, 0, 0, -1, -31, 589)"/>
<path fill="none" stroke-width="0.4" stroke-linecap="butt" stroke-linejoin="round" stroke="rgb(0%, 0%, 0%)" stroke-opacity="1" stroke-miterlimit="10" d="M 288 528 L 288 512 " transform="matrix(1, 0, 0, -1, -31, 589)"/>
<path fill="none" stroke-width="0.4" stroke-linecap="butt" stroke-linejoin="round" stroke="rgb(0%, 0%, 0%)" stroke-opacity="1" stroke-miterlimit="10" d="M 304 528 L 304 512 " transform="matrix(1, 0, 0, -1, -31, 589)"/>
<path fill="none" stroke-width="0.4" stroke-linecap="butt" stroke-linejoin="round" stroke="rgb(0%, 0%, 0%)" stroke-opacity="1" stroke-miterlimit="10" d="M 320 528 L 320 512 " transform="matrix(1, 0, 0, -1, -31, 589)"/>
<path fill="none" stroke-width="0.4" stroke-linecap="butt" stroke-linejoin="round" stroke="rgb(0%, 0%, 0%)" stroke-opacity="1" stroke-miterlimit="10" d="M 336 528 L 336 512 " transform="matrix(1, 0, 0, -1, -31, 589)"/>
<path fill="none" stroke-width="0.4" stroke-linecap="butt" stroke-linejoin="round" stroke="rgb(0%, 0%, 0%)" stroke-opacity="1" stroke-miterlimit="10" d="M 352 528 L 352 512 " transform="matrix(1, 0, 0, -1, -31, 589)"/>
<path fill="none" stroke-width="0.4" stroke-linecap="butt" stroke-linejoin="round" stroke="rgb(0%, 0%, 0%)" stroke-opacity="1" stroke-miterlimit="10" d="M 368 528 L 368 512 " transform="matrix(1, 0, 0, -1, -31, 589)"/>
<g clip-path="url(#clip-0)">
<g fill="rgb(0%, 0%, 0%)" fill-opacity="1">
<use xlink:href="#glyph-0-0" x="4.1425" y="75.776"/>
</g>
</g>
<g clip-path="url(#clip-1)">
<g fill="rgb(0%, 0%, 0%)" fill-opacity="1">
<use xlink:href="#glyph-0-0" x="20.1425" y="75.776"/>
</g>
</g>
<g clip-path="url(#clip-2)">
<g fill="rgb(0%, 0%, 0%)" fill-opacity="1">
<use xlink:href="#glyph-0-0" x="36.1425" y="75.776"/>
</g>
</g>
<g clip-path="url(#clip-3)">
<g fill="rgb(0%, 0%, 0%)" fill-opacity="1">
<use xlink:href="#glyph-0-0" x="52.1425" y="75.776"/>
</g>
</g>
<path fill="none" stroke-width="0.4" stroke-linecap="butt" stroke-linejoin="round" stroke="rgb(0%, 0%, 0%)" stroke-opacity="1" stroke-miterlimit="10" d="M 384 528 L 384 512 " transform="matrix(1, 0, 0, -1, -31, 589)"/>
<path fill="none" stroke-width="0.4" stroke-linecap="butt" stroke-linejoin="round" stroke="rgb(0%, 0%, 0%)" stroke-opacity="1" stroke-miterlimit="10" d="M 400 528 L 400 512 " transform="matrix(1, 0, 0, -1, -31, 589)"/>
<path fill="none" stroke-width="0.4" stroke-linecap="butt" stroke-linejoin="round" stroke="rgb(0%, 0%, 0%)" stroke-opacity="1" stroke-miterlimit="10" d="M 416 528 L 416 512 " transform="matrix(1, 0, 0, -1, -31, 589)"/>
<path fill="none" stroke-width="0.4" stroke-linecap="butt" stroke-linejoin="round" stroke="rgb(0%, 0%, 0%)" stroke-opacity="1" stroke-miterlimit="10" d="M 432 528 L 432 512 " transform="matrix(1, 0, 0, -1, -31, 589)"/>
<path fill="none" stroke-width="0.4" stroke-linecap="butt" stroke-linejoin="round" stroke="rgb(0%, 0%, 0%)" stroke-opacity="1" stroke-miterlimit="10" d="M 448 528 L 448 512 " transform="matrix(1, 0, 0, -1, -31, 589)"/>
<path fill="none" stroke-width="0.4" stroke-linecap="butt" stroke-linejoin="round" stroke="rgb(0%, 0%, 0%)" stroke-opacity="1" stroke-miterlimit="10" d="M 464 528 L 464 512 " transform="matrix(1, 0, 0, -1, -31, 589)"/>
<path fill="none" stroke-width="0.4" stroke-linecap="butt" stroke-linejoin="round" stroke="rgb(0%, 0%, 0%)" stroke-opacity="1" stroke-miterlimit="10" d="M 480 528 L 480 512 " transform="matrix(1, 0, 0, -1, -31, 589)"/>
<path fill="none" stroke-width="0.4" stroke-linecap="butt" stroke-linejoin="round" stroke="rgb(0%, 0%, 0%)" stroke-opacity="1" stroke-miterlimit="10" d="M 496 528 L 496 512 " transform="matrix(1, 0, 0, -1, -31, 589)"/>
<path fill="none" stroke-width="0.4" stroke-linecap="butt" stroke-linejoin="round" stroke="rgb(0%, 0%, 0%)" stroke-opacity="1" stroke-miterlimit="10" d="M 512 528 L 512 512 " transform="matrix(1, 0, 0, -1, -31, 589)"/>
<path fill="none" stroke-width="0.4" stroke-linecap="butt" stroke-linejoin="round" stroke="rgb(0%, 0%, 0%)" stroke-opacity="1" stroke-miterlimit="10" d="M 528 528 L 528 512 " transform="matrix(1, 0, 0, -1, -31, 589)"/>
<g clip-path="url(#clip-4)">
<g fill="rgb(0%, 0%, 0%)" fill-opacity="1">
<use xlink:href="#glyph-0-1" x="500.1425" y="75.776"/>
</g>
</g>
<g clip-path="url(#clip-5)">
<g fill="rgb(0%, 0%, 0%)" fill-opacity="1">
<use xlink:href="#glyph-0-1" x="484.1425" y="75.776"/>
</g>
</g>
<g clip-path="url(#clip-6)">
<g fill="rgb(0%, 0%, 0%)" fill-opacity="1">
<use xlink:href="#glyph-1-0" x="502.5095" y="56.21"/>
</g>
</g>
<g clip-path="url(#clip-7)">
<g fill="rgb(0%, 0%, 0%)" fill-opacity="1">
<use xlink:href="#glyph-0-0" x="68.1425" y="75.776"/>
</g>
</g>
<g clip-path="url(#clip-8)">
<g fill="rgb(0%, 0%, 0%)" fill-opacity="1">
<use xlink:href="#glyph-0-0" x="84.1425" y="75.776"/>
</g>
</g>
<g clip-path="url(#clip-9)">
<g fill="rgb(0%, 0%, 0%)" fill-opacity="1">
<use xlink:href="#glyph-0-0" x="100.1425" y="75.776"/>
</g>
</g>
<g clip-path="url(#clip-10)">
<g fill="rgb(0%, 0%, 0%)" fill-opacity="1">
<use xlink:href="#glyph-0-0" x="116.1425" y="75.776"/>
</g>
</g>
<g clip-path="url(#clip-11)">
<g fill="rgb(0%, 0%, 0%)" fill-opacity="1">
<use xlink:href="#glyph-0-0" x="132.1425" y="75.776"/>
</g>
</g>
<g clip-path="url(#clip-12)">
<g fill="rgb(0%, 0%, 0%)" fill-opacity="1">
<use xlink:href="#glyph-0-0" x="148.1425" y="75.776"/>
</g>
</g>
<g clip-path="url(#clip-13)">
<g fill="rgb(0%, 0%, 0%)" fill-opacity="1">
<use xlink:href="#glyph-0-0" x="164.1425" y="75.776"/>
</g>
</g>
<g clip-path="url(#clip-14)">
<g fill="rgb(0%, 0%, 0%)" fill-opacity="1">
<use xlink:href="#glyph-0-0" x="180.1425" y="75.776"/>
</g>
</g>
<g clip-path="url(#clip-15)">
<g fill="rgb(0%, 0%, 0%)" fill-opacity="1">
<use xlink:href="#glyph-0-0" x="196.1425" y="75.776"/>
</g>
</g>
<g clip-path="url(#clip-16)">
<g fill="rgb(0%, 0%, 0%)" fill-opacity="1">
<use xlink:href="#glyph-0-0" x="212.1425" y="75.776"/>
</g>
</g>
<g clip-path="url(#clip-17)">
<g fill="rgb(0%, 0%, 0%)" fill-opacity="1">
<use xlink:href="#glyph-0-0" x="228.1425" y="75.776"/>
</g>
</g>
<g clip-path="url(#clip-18)">
<g fill="rgb(0%, 0%, 0%)" fill-opacity="1">
<use xlink:href="#glyph-0-0" x="244.1425" y="75.776"/>
</g>
</g>
<g clip-path="url(#clip-19)">
<g fill="rgb(0%, 0%, 0%)" fill-opacity="1">
<use xlink:href="#glyph-0-0" x="260.1425" y="75.776"/>
</g>
</g>
<g clip-path="url(#clip-20)">
<g fill="rgb(0%, 0%, 0%)" fill-opacity="1">
<use xlink:href="#glyph-0-0" x="276.1425" y="75.776"/>
</g>
</g>
<g clip-path="url(#clip-21)">
<g fill="rgb(0%, 0%, 0%)" fill-opacity="1">
<use xlink:href="#glyph-0-0" x="292.1425" y="75.776"/>
</g>
</g>
<g clip-path="url(#clip-22)">
<g fill="rgb(0%, 0%, 0%)" fill-opacity="1">
<use xlink:href="#glyph-0-0" x="308.1425" y="75.776"/>
</g>
</g>
<g clip-path="url(#clip-23)">
<g fill="rgb(0%, 0%, 0%)" fill-opacity="1">
<use xlink:href="#glyph-0-0" x="324.1425" y="75.776"/>
</g>
</g>
<g clip-path="url(#clip-24)">
<g fill="rgb(0%, 0%, 0%)" fill-opacity="1">
<use xlink:href="#glyph-0-0" x="340.1425" y="75.776"/>
</g>
</g>
<g clip-path="url(#clip-25)">
<g fill="rgb(0%, 0%, 0%)" fill-opacity="1">
<use xlink:href="#glyph-0-0" x="356.1425" y="75.776"/>
</g>
</g>
<g clip-path="url(#clip-26)">
<g fill="rgb(0%, 0%, 0%)" fill-opacity="1">
<use xlink:href="#glyph-0-0" x="372.1425" y="75.776"/>
</g>
</g>
<g clip-path="url(#clip-27)">
<g fill="rgb(0%, 0%, 0%)" fill-opacity="1">
<use xlink:href="#glyph-0-0" x="388.1425" y="75.776"/>
</g>
</g>
<g clip-path="url(#clip-28)">
<g fill="rgb(0%, 0%, 0%)" fill-opacity="1">
<use xlink:href="#glyph-0-1" x="420.1425" y="75.776"/>
</g>
</g>
<g clip-path="url(#clip-29)">
<g fill="rgb(0%, 0%, 0%)" fill-opacity="1">
<use xlink:href="#glyph-0-1" x="404.1425" y="75.776"/>
</g>
</g>
<g clip-path="url(#clip-30)">
<g fill="rgb(0%, 0%, 0%)" fill-opacity="1">
<use xlink:href="#glyph-0-0" x="436.1425" y="75.776"/>
</g>
</g>
<g clip-path="url(#clip-31)">
<g fill="rgb(0%, 0%, 0%)" fill-opacity="1">
<use xlink:href="#glyph-0-0" x="452.1425" y="75.776"/>
</g>
</g>
<g clip-path="url(#clip-32)">
<g fill="rgb(0%, 0%, 0%)" fill-opacity="1">
<use xlink:href="#glyph-0-0" x="468.1425" y="75.776"/>
</g>
</g>
<g clip-path="url(#clip-33)">
<g fill="rgb(0%, 0%, 0%)" fill-opacity="1">
<use xlink:href="#glyph-1-1" x="374.5095" y="56.21"/>
</g>
</g>
<g clip-path="url(#clip-34)">
<g fill="rgb(0%, 0%, 0%)" fill-opacity="1">
<use xlink:href="#glyph-1-2" x="244.0185" y="56.21"/>
<use xlink:href="#glyph-1-3" x="248.9998" y="56.21"/>
</g>
</g>
<g clip-path="url(#clip-35)">
<g fill="rgb(0%, 0%, 0%)" fill-opacity="1">
<use xlink:href="#glyph-1-4" x="116.0185" y="56.21"/>
<use xlink:href="#glyph-1-5" x="120.9998" y="56.21"/>
</g>
</g>
<g clip-path="url(#clip-36)">
<g fill="rgb(0%, 0%, 0%)" fill-opacity="1">
<use xlink:href="#glyph-1-6" x="4.0185" y="56.21"/>
<use xlink:href="#glyph-1-2" x="8.9998" y="56.21"/>
</g>
</g>
<path fill="none" stroke-width="0.4" stroke-linecap="butt" stroke-linejoin="round" stroke="rgb(0%, 0%, 0%)" stroke-opacity="1" stroke-miterlimit="10" d="M 32 576 L 32 560 L 544 560 L 544 576 Z M 32 576 " transform="matrix(1, 0, 0, -1, -31, 589)"/>
<path fill="none" stroke-width="0.4" stroke-linecap="butt" stroke-linejoin="round" stroke="rgb(0%, 0%, 0%)" stroke-opacity="1" stroke-miterlimit="10" d="M 48 576 L 48 560 " transform="matrix(1, 0, 0, -1, -31, 589)"/>
<path fill="none" stroke-width="0.4" stroke-linecap="butt" stroke-linejoin="round" stroke="rgb(0%, 0%, 0%)" stroke-opacity="1" stroke-miterlimit="10" d="M 64 576 L 64 560 " transform="matrix(1, 0, 0, -1, -31, 589)"/>
<path fill="none" stroke-width="0.4" stroke-linecap="butt" stroke-linejoin="round" stroke="rgb(0%, 0%, 0%)" stroke-opacity="1" stroke-miterlimit="10" d="M 80 576 L 80 560 " transform="matrix(1, 0, 0, -1, -31, 589)"/>
<path fill="none" stroke-width="0.4" stroke-linecap="butt" stroke-linejoin="round" stroke="rgb(0%, 0%, 0%)" stroke-opacity="1" stroke-miterlimit="10" d="M 96 576 L 96 560 " transform="matrix(1, 0, 0, -1, -31, 589)"/>
<path fill="none" stroke-width="0.4" stroke-linecap="butt" stroke-linejoin="round" stroke="rgb(0%, 0%, 0%)" stroke-opacity="1" stroke-miterlimit="10" d="M 112 576 L 112 560 " transform="matrix(1, 0, 0, -1, -31, 589)"/>
<path fill="none" stroke-width="0.4" stroke-linecap="butt" stroke-linejoin="round" stroke="rgb(0%, 0%, 0%)" stroke-opacity="1" stroke-miterlimit="10" d="M 128 576 L 128 560 " transform="matrix(1, 0, 0, -1, -31, 589)"/>
<path fill="none" stroke-width="0.4" stroke-linecap="butt" stroke-linejoin="round" stroke="rgb(0%, 0%, 0%)" stroke-opacity="1" stroke-miterlimit="10" d="M 144 576 L 144 560 " transform="matrix(1, 0, 0, -1, -31, 589)"/>
<path fill="none" stroke-width="0.4" stroke-linecap="butt" stroke-linejoin="round" stroke="rgb(0%, 0%, 0%)" stroke-opacity="1" stroke-miterlimit="10" d="M 160 576 L 160 560 " transform="matrix(1, 0, 0, -1, -31, 589)"/>
<path fill="none" stroke-width="0.4" stroke-linecap="butt" stroke-linejoin="round" stroke="rgb(0%, 0%, 0%)" stroke-opacity="1" stroke-miterlimit="10" d="M 176 576 L 176 560 " transform="matrix(1, 0, 0, -1, -31, 589)"/>
<path fill="none" stroke-width="0.4" stroke-linecap="butt" stroke-linejoin="round" stroke="rgb(0%, 0%, 0%)" stroke-opacity="1" stroke-miterlimit="10" d="M 192 576 L 192 560 " transform="matrix(1, 0, 0, -1, -31, 589)"/>
<path fill="none" stroke-width="0.4" stroke-linecap="butt" stroke-linejoin="round" stroke="rgb(0%, 0%, 0%)" stroke-opacity="1" stroke-miterlimit="10" d="M 208 576 L 208 560 " transform="matrix(1, 0, 0, -1, -31, 589)"/>
<path fill="none" stroke-width="0.4" stroke-linecap="butt" stroke-linejoin="round" stroke="rgb(0%, 0%, 0%)" stroke-opacity="1" stroke-miterlimit="10" d="M 224 576 L 224 560 " transform="matrix(1, 0, 0, -1, -31, 589)"/>
<path fill="none" stroke-width="0.4" stroke-linecap="butt" stroke-linejoin="round" stroke="rgb(0%, 0%, 0%)" stroke-opacity="1" stroke-miterlimit="10" d="M 240 576 L 240 560 " transform="matrix(1, 0, 0, -1, -31, 589)"/>
<path fill="none" stroke-width="0.4" stroke-linecap="butt" stroke-linejoin="round" stroke="rgb(0%, 0%, 0%)" stroke-opacity="1" stroke-miterlimit="10" d="M 256 576 L 256 560 " transform="matrix(1, 0, 0, -1, -31, 589)"/>
<path fill="none" stroke-width="0.4" stroke-linecap="butt" stroke-linejoin="round" stroke="rgb(0%, 0%, 0%)" stroke-opacity="1" stroke-miterlimit="10" d="M 272 576 L 272 560 " transform="matrix(1, 0, 0, -1, -31, 589)"/>
<path fill="none" stroke-width="0.4" stroke-linecap="butt" stroke-linejoin="round" stroke="rgb(0%, 0%, 0%)" stroke-opacity="1" stroke-miterlimit="10" d="M 288 576 L 288 560 " transform="matrix(1, 0, 0, -1, -31, 589)"/>
<path fill="none" stroke-width="0.4" stroke-linecap="butt" stroke-linejoin="round" stroke="rgb(0%, 0%, 0%)" stroke-opacity="1" stroke-miterlimit="10" d="M 304 576 L 304 560 " transform="matrix(1, 0, 0, -1, -31, 589)"/>
<path fill="none" stroke-width="0.4" stroke-linecap="butt" stroke-linejoin="round" stroke="rgb(0%, 0%, 0%)" stroke-opacity="1" stroke-miterlimit="10" d="M 320 576 L 320 560 " transform="matrix(1, 0, 0, -1, -31, 589)"/>
<path fill="none" stroke-width="0.4" stroke-linecap="butt" stroke-linejoin="round" stroke="rgb(0%, 0%, 0%)" stroke-opacity="1" stroke-miterlimit="10" d="M 336 576 L 336 560 " transform="matrix(1, 0, 0, -1, -31, 589)"/>
<path fill="none" stroke-width="0.4" stroke-linecap="butt" stroke-linejoin="round" stroke="rgb(0%, 0%, 0%)" stroke-opacity="1" stroke-miterlimit="10" d="M 352 576 L 352 560 " transform="matrix(1, 0, 0, -1, -31, 589)"/>
<path fill="none" stroke-width="0.4" stroke-linecap="butt" stroke-linejoin="round" stroke="rgb(0%, 0%, 0%)" stroke-opacity="1" stroke-miterlimit="10" d="M 368 576 L 368 560 " transform="matrix(1, 0, 0, -1, -31, 589)"/>
<g clip-path="url(#clip-37)">
<g fill="rgb(0%, 0%, 0%)" fill-opacity="1">
<use xlink:href="#glyph-0-1" x="4.1425" y="27.776"/>
</g>
</g>
<path fill="none" stroke-width="0.4" stroke-linecap="butt" stroke-linejoin="round" stroke="rgb(0%, 0%, 0%)" stroke-opacity="1" stroke-miterlimit="10" d="M 384 576 L 384 560 " transform="matrix(1, 0, 0, -1, -31, 589)"/>
<path fill="none" stroke-width="0.4" stroke-linecap="butt" stroke-linejoin="round" stroke="rgb(0%, 0%, 0%)" stroke-opacity="1" stroke-miterlimit="10" d="M 400 576 L 400 560 " transform="matrix(1, 0, 0, -1, -31, 589)"/>
<path fill="none" stroke-width="0.4" stroke-linecap="butt" stroke-linejoin="round" stroke="rgb(0%, 0%, 0%)" stroke-opacity="1" stroke-miterlimit="10" d="M 416 576 L 416 560 " transform="matrix(1, 0, 0, -1, -31, 589)"/>
<path fill="none" stroke-width="0.4" stroke-linecap="butt" stroke-linejoin="round" stroke="rgb(0%, 0%, 0%)" stroke-opacity="1" stroke-miterlimit="10" d="M 432 576 L 432 560 " transform="matrix(1, 0, 0, -1, -31, 589)"/>
<path fill="none" stroke-width="0.4" stroke-linecap="butt" stroke-linejoin="round" stroke="rgb(0%, 0%, 0%)" stroke-opacity="1" stroke-miterlimit="10" d="M 448 576 L 448 560 " transform="matrix(1, 0, 0, -1, -31, 589)"/>
<path fill="none" stroke-width="0.4" stroke-linecap="butt" stroke-linejoin="round" stroke="rgb(0%, 0%, 0%)" stroke-opacity="1" stroke-miterlimit="10" d="M 464 576 L 464 560 " transform="matrix(1, 0, 0, -1, -31, 589)"/>
<path fill="none" stroke-width="0.4" stroke-linecap="butt" stroke-linejoin="round" stroke="rgb(0%, 0%, 0%)" stroke-opacity="1" stroke-miterlimit="10" d="M 480 576 L 480 560 " transform="matrix(1, 0, 0, -1, -31, 589)"/>
<path fill="none" stroke-width="0.4" stroke-linecap="butt" stroke-linejoin="round" stroke="rgb(0%, 0%, 0%)" stroke-opacity="1" stroke-miterlimit="10" d="M 496 576 L 496 560 " transform="matrix(1, 0, 0, -1, -31, 589)"/>
<path fill="none" stroke-width="0.4" stroke-linecap="butt" stroke-linejoin="round" stroke="rgb(0%, 0%, 0%)" stroke-opacity="1" stroke-miterlimit="10" d="M 512 576 L 512 560 " transform="matrix(1, 0, 0, -1, -31, 589)"/>
<path fill="none" stroke-width="0.4" stroke-linecap="butt" stroke-linejoin="round" stroke="rgb(0%, 0%, 0%)" stroke-opacity="1" stroke-miterlimit="10" d="M 528 576 L 528 560 " transform="matrix(1, 0, 0, -1, -31, 589)"/>
<g clip-path="url(#clip-38)">
<g fill="rgb(0%, 0%, 0%)" fill-opacity="1">
<use xlink:href="#glyph-0-1" x="500.1425" y="27.776"/>
</g>
</g>
<g clip-path="url(#clip-39)">
<g fill="rgb(0%, 0%, 0%)" fill-opacity="1">
<use xlink:href="#glyph-0-1" x="484.1425" y="27.776"/>
</g>
</g>
<g clip-path="url(#clip-40)">
<g fill="rgb(0%, 0%, 0%)" fill-opacity="1">
<use xlink:href="#glyph-1-0" x="502.5095" y="8.21"/>
</g>
</g>
<g clip-path="url(#clip-41)">
<g fill="rgb(0%, 0%, 0%)" fill-opacity="1">
<use xlink:href="#glyph-0-0" x="420.1425" y="27.776"/>
</g>
</g>
<g clip-path="url(#clip-42)">
<g fill="rgb(0%, 0%, 0%)" fill-opacity="1">
<use xlink:href="#glyph-0-0" x="404.1425" y="27.776"/>
</g>
</g>
<g clip-path="url(#clip-43)">
<g fill="rgb(0%, 0%, 0%)" fill-opacity="1">
<use xlink:href="#glyph-0-1" x="436.1425" y="27.776"/>
</g>
</g>
<g clip-path="url(#clip-44)">
<g fill="rgb(0%, 0%, 0%)" fill-opacity="1">
<use xlink:href="#glyph-1-1" x="374.5095" y="8.21"/>
</g>
</g>
<g clip-path="url(#clip-45)">
<g fill="rgb(0%, 0%, 0%)" fill-opacity="1">
<use xlink:href="#glyph-1-2" x="244.0185" y="8.21"/>
<use xlink:href="#glyph-1-3" x="248.9998" y="8.21"/>
</g>
</g>
<g clip-path="url(#clip-46)">
<g fill="rgb(0%, 0%, 0%)" fill-opacity="1">
<use xlink:href="#glyph-1-4" x="116.0185" y="8.21"/>
<use xlink:href="#glyph-1-5" x="120.9998" y="8.21"/>
</g>
</g>
<g clip-path="url(#clip-47)">
<g fill="rgb(0%, 0%, 0%)" fill-opacity="1">
<use xlink:href="#glyph-1-6" x="4.0185" y="8.21"/>
<use xlink:href="#glyph-1-2" x="8.9998" y="8.21"/>
</g>
</g>
<g clip-path="url(#clip-48)">
<g fill="rgb(0%, 0%, 0%)" fill-opacity="1">
<use xlink:href="#glyph-0-1" x="20.1425" y="27.776"/>
</g>
</g>
<g clip-path="url(#clip-49)">
<g fill="rgb(0%, 0%, 0%)" fill-opacity="1">
<use xlink:href="#glyph-0-1" x="36.1425" y="27.776"/>
</g>
</g>
<g clip-path="url(#clip-50)">
<g fill="rgb(0%, 0%, 0%)" fill-opacity="1">
<use xlink:href="#glyph-0-1" x="52.1425" y="27.776"/>
</g>
</g>
<g clip-path="url(#clip-51)">
<g fill="rgb(0%, 0%, 0%)" fill-opacity="1">
<use xlink:href="#glyph-0-1" x="68.1425" y="27.776"/>
</g>
</g>
<g clip-path="url(#clip-52)">
<g fill="rgb(0%, 0%, 0%)" fill-opacity="1">
<use xlink:href="#glyph-0-1" x="84.1425" y="27.776"/>
</g>
</g>
<g clip-path="url(#clip-53)">
<g fill="rgb(0%, 0%, 0%)" fill-opacity="1">
<use xlink:href="#glyph-0-1" x="100.1425" y="27.776"/>
</g>
</g>
<g clip-path="url(#clip-54)">
<g fill="rgb(0%, 0%, 0%)" fill-opacity="1">
<use xlink:href="#glyph-0-1" x="116.1425" y="27.776"/>
</g>
</g>
<g clip-path="url(#clip-55)">
<g fill="rgb(0%, 0%, 0%)" fill-opacity="1">
<use xlink:href="#glyph-0-1" x="132.1425" y="27.776"/>
</g>
</g>
<g clip-path="url(#clip-56)">
<g fill="rgb(0%, 0%, 0%)" fill-opacity="1">
<use xlink:href="#glyph-0-1" x="148.1425" y="27.776"/>
</g>
</g>
<g clip-path="url(#clip-57)">
<g fill="rgb(0%, 0%, 0%)" fill-opacity="1">
<use xlink:href="#glyph-0-1" x="164.1425" y="27.776"/>
</g>
</g>
<g clip-path="url(#clip-58)">
<g fill="rgb(0%, 0%, 0%)" fill-opacity="1">
<use xlink:href="#glyph-0-1" x="180.1425" y="27.776"/>
</g>
</g>
<g clip-path="url(#clip-59)">
<g fill="rgb(0%, 0%, 0%)" fill-opacity="1">
<use xlink:href="#glyph-0-1" x="196.1425" y="27.776"/>
</g>
</g>
<g clip-path="url(#clip-60)">
<g fill="rgb(0%, 0%, 0%)" fill-opacity="1">
<use xlink:href="#glyph-0-1" x="212.1425" y="27.776"/>
</g>
</g>
<g clip-path="url(#clip-61)">
<g fill="rgb(0%, 0%, 0%)" fill-opacity="1">
<use xlink:href="#glyph-0-1" x="228.1425" y="27.776"/>
</g>
</g>
<g clip-path="url(#clip-62)">
<g fill="rgb(0%, 0%, 0%)" fill-opacity="1">
<use xlink:href="#glyph-0-1" x="244.1425" y="27.776"/>
</g>
</g>
<g clip-path="url(#clip-63)">
<g fill="rgb(0%, 0%, 0%)" fill-opacity="1">
<use xlink:href="#glyph-0-1" x="260.1425" y="27.776"/>
</g>
</g>
<g clip-path="url(#clip-64)">
<g fill="rgb(0%, 0%, 0%)" fill-opacity="1">
<use xlink:href="#glyph-0-1" x="276.1425" y="27.776"/>
</g>
</g>
<g clip-path="url(#clip-65)">
<g fill="rgb(0%, 0%, 0%)" fill-opacity="1">
<use xlink:href="#glyph-0-1" x="292.1425" y="27.776"/>
</g>
</g>
<g clip-path="url(#clip-66)">
<g fill="rgb(0%, 0%, 0%)" fill-opacity="1">
<use xlink:href="#glyph-0-1" x="308.1425" y="27.776"/>
</g>
</g>
<g clip-path="url(#clip-67)">
<g fill="rgb(0%, 0%, 0%)" fill-opacity="1">
<use xlink:href="#glyph-0-1" x="324.1425" y="27.776"/>
</g>
</g>
<g clip-path="url(#clip-68)">
<g fill="rgb(0%, 0%, 0%)" fill-opacity="1">
<use xlink:href="#glyph-0-1" x="340.1425" y="27.776"/>
</g>
</g>
<g clip-path="url(#clip-69)">
<g fill="rgb(0%, 0%, 0%)" fill-opacity="1">
<use xlink:href="#glyph-0-1" x="356.1425" y="27.776"/>
</g>
</g>
<g clip-path="url(#clip-70)">
<g fill="rgb(0%, 0%, 0%)" fill-opacity="1">
<use xlink:href="#glyph-0-1" x="372.1425" y="27.776"/>
</g>
</g>
<g clip-path="url(#clip-71)">
<g fill="rgb(0%, 0%, 0%)" fill-opacity="1">
<use xlink:href="#glyph-0-1" x="388.1425" y="27.776"/>
</g>
</g>
<g clip-path="url(#clip-72)">
<g fill="rgb(0%, 0%, 0%)" fill-opacity="1">
<use xlink:href="#glyph-0-1" x="452.1425" y="27.776"/>
</g>
</g>
<g clip-path="url(#clip-73)">
<g fill="rgb(0%, 0%, 0%)" fill-opacity="1">
<use xlink:href="#glyph-0-0" x="468.1425" y="27.776"/>
</g>
</g>
</svg>
